<svg width="41.236328" height="52.000000" viewBox="0 0 41.2363 52" fill="none" xmlns="http://www.w3.org/2000/svg" xmlns:xlink="http://www.w3.org/1999/xlink">
	<desc>
			Created with Pixso.
	</desc>
	<defs/>
	<path id="Vector" d="M13.08 48.15L17.51 43.61L12.27 38.23L7.84 42.77L13.08 48.15ZM15.2 43.61L13.08 45.78L10.15 42.77L12.27 40.6L15.2 43.61Z" fill="#FAFF00" fill-opacity="1.000000" fill-rule="nonzero"/>
	<path id="Vector" d="M41.23 6.7L34.69 0L32.38 0L0 32.35L0 33.89L1.29 35.22L0 36.55L0 38.91L11.91 52L14.24 52L21.26 44.79L21.26 42.44L14.19 34.47L41.23 6.7ZM1.63 33.2L1.63 33.06L6.19 28.5L10.05 32.46L11.21 31.27L7.36 27.33L8.68 26.02L10.87 28.27L12.03 27.08L9.85 24.85L11.16 23.54L14.96 27.43L16.12 26.24L12.34 22.37L13.65 21.06L15.78 23.24L16.93 22.05L14.82 19.89L16.14 18.57L19.87 22.4L21.03 21.21L17.31 17.4L18.62 16.09L20.69 18.21L21.84 17.02L19.8 14.92L21.11 13.61L24.78 17.37L25.93 16.18L22.28 12.44L23.6 11.13L25.6 13.18L26.75 11.99L24.77 9.96L26.08 8.64L29.69 12.34L30.84 11.15L27.25 7.46L28.56 6.15L30.5 8.14L31.66 6.95L29.73 4.98L31.05 3.67L34.59 7.3L35.75 6.11L32.22 2.5L33.04 1.67L34.01 1.67L38.92 6.71L12.78 33.55L3.78 32.67L2.45 34.04L1.63 33.2ZM1.63 37.25L4.39 34.42L11.28 35.09L4.81 41.74L1.63 38.25L1.63 37.25ZM19.63 43.09L19.63 44.1L13.56 50.32L12.62 50.32L5.93 42.96L13.04 35.66L19.63 43.09Z" fill="#FAFF00" fill-opacity="1.000000" fill-rule="nonzero"/>
</svg>
