<svg width="49.910889" height="51.166260" viewBox="0 0 49.9109 51.1663" fill="none" xmlns="http://www.w3.org/2000/svg" xmlns:xlink="http://www.w3.org/1999/xlink">
	<desc>
			Created with Pixso.
	</desc>
	<defs/>
	<path id="Vector" d="M35.21 28.19L14.69 28.19C14.36 28.19 14.11 27.93 14.11 27.61C14.11 27.28 14.36 27.03 14.69 27.03L35.2 27.03C35.52 27.03 35.78 27.28 35.78 27.61C35.78 27.93 35.52 28.19 35.21 28.19L35.21 28.19ZM35.21 24.12L14.69 24.12C14.36 24.12 14.11 23.86 14.11 23.54C14.11 23.21 14.36 22.96 14.69 22.96L35.2 22.96C35.52 22.96 35.78 23.21 35.78 23.54C35.78 23.86 35.52 24.12 35.21 24.12L35.21 24.12Z" fill="#FAFF00" fill-opacity="1.000000" fill-rule="nonzero"/>
	<path id="Vector" d="M13.54 33.48L12.25 33.48C11.3 33.48 10.52 32.7 10.52 31.75L10.52 19.41C10.52 18.46 11.3 17.68 12.25 17.68L13.54 17.68C14.49 17.68 15.27 18.46 15.27 19.41L15.27 31.75C15.27 32.7 14.5 33.48 13.54 33.48ZM12.25 18.84C11.94 18.84 11.68 19.1 11.68 19.41L11.68 31.76C11.68 32.07 11.94 32.33 12.25 32.33L13.54 32.33C13.85 32.33 14.11 32.07 14.11 31.76L14.11 19.41C14.11 19.1 13.85 18.84 13.54 18.84L12.25 18.84Z" fill="#FAFF00" fill-opacity="1.000000" fill-rule="nonzero"/>
	<path id="Vector" d="M9.95 31.21L8.66 31.21C7.7 31.21 6.92 30.43 6.92 29.48L6.92 21.68C6.92 20.72 7.7 19.95 8.66 19.95L9.95 19.95C10.9 19.95 11.68 20.72 11.68 21.68C11.68 22 11.42 22.26 11.1 22.26C10.77 22.26 10.52 22 10.52 21.68C10.52 21.36 10.26 21.11 9.95 21.11L8.66 21.11C8.34 21.11 8.09 21.36 8.09 21.68L8.09 29.48C8.09 29.79 8.34 30.05 8.66 30.05L9.95 30.05C10.26 30.05 10.52 29.79 10.52 29.48C10.52 29.15 10.77 28.9 11.1 28.9C11.42 28.9 11.68 29.15 11.68 29.48C11.68 30.43 10.9 31.21 9.95 31.21Z" fill="#FAFF00" fill-opacity="1.000000" fill-rule="nonzero"/>
	<path id="Vector" d="M6.35 29.64L5.06 29.64C4.11 29.64 3.33 28.86 3.33 27.91L3.33 23.25C3.33 22.29 4.11 21.52 5.06 21.52L6.35 21.52C7.31 21.52 8.09 22.29 8.09 23.25C8.09 23.57 7.83 23.83 7.51 23.83C7.18 23.83 6.92 23.57 6.92 23.25C6.92 22.93 6.67 22.68 6.35 22.68L5.06 22.68C4.75 22.68 4.49 22.93 4.49 23.25L4.49 27.91C4.49 28.22 4.75 28.48 5.06 28.48L6.35 28.48C6.67 28.48 6.92 28.22 6.92 27.91C6.92 27.58 7.18 27.33 7.51 27.33C7.83 27.33 8.09 27.58 8.09 27.91C8.09 28.86 7.31 29.64 6.35 29.64Z" fill="#FAFF00" fill-opacity="1.000000" fill-rule="nonzero"/>
	<path id="Vector" d="M3.91 28.19L0.58 28.19C0.25 28.19 0 27.93 0 27.61L0 23.54C0 23.21 0.25 22.96 0.58 22.96L3.91 22.96C4.24 22.96 4.49 23.21 4.49 23.54C4.49 23.86 4.24 24.12 3.91 24.12L1.16 24.12L1.16 27.03L3.91 27.03C4.24 27.03 4.49 27.28 4.49 27.61C4.49 27.93 4.24 28.19 3.91 28.19Z" fill="#FAFF00" fill-opacity="1.000000" fill-rule="nonzero"/>
	<path id="Vector" d="M35.21 10.52L14.69 10.52C14.36 10.52 14.11 10.26 14.11 9.93C14.11 9.61 14.36 9.35 14.69 9.35L35.2 9.35C35.52 9.35 35.78 9.61 35.78 9.93C35.78 10.26 35.52 10.52 35.21 10.52L35.21 10.52ZM35.21 6.45L14.69 6.45C14.36 6.45 14.11 6.19 14.11 5.87C14.11 5.54 14.36 5.28 14.69 5.28L35.2 5.28C35.52 5.28 35.78 5.54 35.78 5.87C35.78 6.19 35.52 6.45 35.21 6.45L35.21 6.45Z" fill="#FAFF00" fill-opacity="1.000000" fill-rule="nonzero"/>
	<path id="Vector" d="M13.14 15.81L11.41 15.81C10.24 15.81 9.28 14.85 9.28 13.68L9.28 2.12C9.28 0.95 10.24 0 11.41 0L13.14 0C14.32 0 15.27 0.95 15.27 2.12L15.27 13.67C15.27 14.85 14.32 15.81 13.14 15.81L13.14 15.81ZM11.41 1.16C10.88 1.16 10.45 1.59 10.45 2.12L10.45 13.67C10.45 14.2 10.88 14.63 11.41 14.63L13.14 14.63C13.68 14.63 14.11 14.2 14.11 13.67L14.11 2.12C14.11 1.59 13.68 1.16 13.14 1.16L11.41 1.16Z" fill="#FAFF00" fill-opacity="1.000000" fill-rule="nonzero"/>
	<path id="Vector" d="M8.32 12.11L6.59 12.11C5.41 12.11 4.46 11.16 4.46 9.98L4.46 5.82C4.46 4.65 5.41 3.69 6.59 3.69L8.32 3.69C9.49 3.69 10.45 4.65 10.45 5.82C10.45 6.15 10.19 6.4 9.86 6.4C9.54 6.4 9.28 6.15 9.28 5.82C9.28 5.29 8.85 4.86 8.32 4.86L6.59 4.86C6.05 4.86 5.62 5.29 5.62 5.82L5.62 9.97C5.62 10.51 6.05 10.94 6.59 10.94L8.32 10.94C8.85 10.94 9.28 10.51 9.28 9.97C9.28 9.64 9.54 9.39 9.86 9.39C10.19 9.39 10.45 9.64 10.45 9.97C10.45 11.16 9.49 12.11 8.32 12.11Z" fill="#FAFF00" fill-opacity="1.000000" fill-rule="nonzero"/>
	<path id="Vector" d="M38.49 15.81L36.76 15.81C35.58 15.81 34.63 14.85 34.63 13.68L34.63 2.12C34.63 0.95 35.58 0 36.76 0L38.49 0C39.66 0 40.62 0.95 40.62 2.12L40.62 13.67C40.62 14.85 39.66 15.81 38.49 15.81L38.49 15.81ZM36.76 1.16C36.22 1.16 35.79 1.59 35.79 2.12L35.79 13.67C35.79 14.2 36.22 14.63 36.76 14.63L38.49 14.63C39.02 14.63 39.45 14.2 39.45 13.67L39.45 2.12C39.45 1.59 39.02 1.16 38.49 1.16L36.76 1.16Z" fill="#FAFF00" fill-opacity="1.000000" fill-rule="nonzero"/>
	<path id="Vector" d="M43.33 12.11L41.59 12.11C40.42 12.11 39.47 11.16 39.47 9.98C39.47 9.66 39.72 9.4 40.05 9.4C40.37 9.4 40.63 9.66 40.63 9.98C40.63 10.52 41.06 10.95 41.59 10.95L43.33 10.95C43.86 10.95 44.29 10.52 44.29 9.98L44.29 5.82C44.29 5.29 43.86 4.86 43.33 4.86L41.59 4.86C41.06 4.86 40.63 5.29 40.63 5.82C40.63 6.15 40.37 6.4 40.05 6.4C39.72 6.4 39.47 6.15 39.47 5.82C39.47 4.65 40.42 3.69 41.59 3.69L43.33 3.69C44.5 3.69 45.45 4.65 45.45 5.82L45.45 9.97C45.45 11.16 44.5 12.11 43.33 12.11Z" fill="#FAFF00" fill-opacity="1.000000" fill-rule="nonzero"/>
	<path id="Vector" d="M35.21 45.87L14.69 45.87C14.36 45.87 14.11 45.62 14.11 45.29C14.11 44.96 14.36 44.71 14.69 44.71L35.2 44.71C35.52 44.71 35.78 44.96 35.78 45.29C35.78 45.62 35.52 45.87 35.21 45.87L35.21 45.87ZM35.21 41.8L14.69 41.8C14.36 41.8 14.11 41.55 14.11 41.22C14.11 40.9 14.36 40.64 14.69 40.64L35.2 40.64C35.52 40.64 35.78 40.9 35.78 41.22C35.78 41.55 35.52 41.8 35.21 41.8L35.21 41.8Z" fill="#FAFF00" fill-opacity="1.000000" fill-rule="nonzero"/>
	<path id="Vector" d="M13.14 51.16L11.41 51.16C10.24 51.16 9.28 50.21 9.28 49.03L9.28 37.49C9.28 36.31 10.24 35.36 11.41 35.36L13.14 35.36C14.32 35.36 15.27 36.31 15.27 37.49L15.27 49.03C15.27 50.21 14.32 51.16 13.14 51.16ZM11.41 36.51C10.88 36.51 10.45 36.94 10.45 37.48L10.45 49.02C10.45 49.56 10.88 49.99 11.41 49.99L13.14 49.99C13.68 49.99 14.11 49.56 14.11 49.02L14.11 37.48C14.11 36.94 13.68 36.51 13.14 36.51L11.41 36.51Z" fill="#FAFF00" fill-opacity="1.000000" fill-rule="nonzero"/>
	<path id="Vector" d="M8.32 47.46L6.59 47.46C5.41 47.46 4.46 46.51 4.46 45.34L4.46 41.19C4.46 40.01 5.41 39.06 6.59 39.06L8.32 39.06C9.49 39.06 10.45 40.01 10.45 41.19C10.45 41.51 10.19 41.77 9.86 41.77C9.54 41.77 9.28 41.51 9.28 41.19C9.28 40.65 8.85 40.22 8.32 40.22L6.59 40.22C6.05 40.22 5.62 40.65 5.62 41.19L5.62 45.34C5.62 45.87 6.05 46.3 6.59 46.3L8.32 46.3C8.85 46.3 9.28 45.87 9.28 45.34C9.28 45.01 9.54 44.76 9.86 44.76C10.19 44.76 10.45 45.01 10.45 45.34C10.45 46.51 9.49 47.46 8.32 47.46Z" fill="#FAFF00" fill-opacity="1.000000" fill-rule="nonzero"/>
	<path id="Vector" d="M38.49 51.16L36.76 51.16C35.58 51.16 34.63 50.21 34.63 49.03L34.63 37.49C34.63 36.31 35.58 35.36 36.76 35.36L38.49 35.36C39.66 35.36 40.62 36.31 40.62 37.49L40.62 49.03C40.62 50.21 39.66 51.16 38.49 51.16ZM36.76 36.51C36.22 36.51 35.79 36.94 35.79 37.48L35.79 49.02C35.79 49.56 36.22 49.99 36.76 49.99L38.49 49.99C39.02 49.99 39.45 49.56 39.45 49.02L39.45 37.48C39.45 36.94 39.02 36.51 38.49 36.51L36.76 36.51Z" fill="#FAFF00" fill-opacity="1.000000" fill-rule="nonzero"/>
	<path id="Vector" d="M43.33 47.46L41.59 47.46C40.42 47.46 39.47 46.51 39.47 45.34C39.47 45.01 39.72 44.76 40.05 44.76C40.37 44.76 40.63 45.01 40.63 45.34C40.63 45.87 41.06 46.3 41.59 46.3L43.33 46.3C43.86 46.3 44.29 45.87 44.29 45.34L44.29 41.19C44.29 40.65 43.86 40.22 43.33 40.22L41.59 40.22C41.06 40.22 40.63 40.65 40.63 41.19C40.63 41.51 40.37 41.77 40.05 41.77C39.72 41.77 39.47 41.51 39.47 41.19C39.47 40.01 40.42 39.06 41.59 39.06L43.33 39.06C44.5 39.06 45.45 40.01 45.45 41.19L45.45 45.34C45.45 46.51 44.5 47.46 43.33 47.46Z" fill="#FAFF00" fill-opacity="1.000000" fill-rule="nonzero"/>
	<path id="Vector" d="M37.65 33.48L36.36 33.48C35.41 33.48 34.63 32.7 34.63 31.75L34.63 19.41C34.63 18.46 35.41 17.68 36.36 17.68L37.65 17.68C38.61 17.68 39.38 18.46 39.38 19.41L39.38 31.75C39.38 32.7 38.61 33.48 37.65 33.48ZM36.36 18.84C36.05 18.84 35.79 19.1 35.79 19.41L35.79 31.76C35.79 32.07 36.05 32.33 36.36 32.33L37.65 32.33C37.97 32.33 38.22 32.07 38.22 31.76L38.22 19.41C38.22 19.1 37.97 18.84 37.65 18.84L36.36 18.84Z" fill="#FAFF00" fill-opacity="1.000000" fill-rule="nonzero"/>
	<path id="Vector" d="M41.24 31.21L39.95 31.21C39 31.21 38.22 30.43 38.22 29.48C38.22 29.15 38.48 28.9 38.8 28.9C39.13 28.9 39.38 29.15 39.38 29.48C39.38 29.79 39.64 30.05 39.95 30.05L41.24 30.05C41.56 30.05 41.81 29.79 41.81 29.48L41.81 21.68C41.81 21.36 41.56 21.11 41.24 21.11L39.95 21.11C39.64 21.11 39.38 21.36 39.38 21.68C39.38 22 39.13 22.26 38.8 22.26C38.48 22.26 38.22 22 38.22 21.68C38.22 20.72 39 19.95 39.95 19.95L41.24 19.95C42.2 19.95 42.98 20.72 42.98 21.68L42.98 29.48C42.98 30.43 42.2 31.21 41.24 31.21Z" fill="#FAFF00" fill-opacity="1.000000" fill-rule="nonzero"/>
	<path id="Vector" d="M44.84 29.64L43.55 29.64C42.59 29.64 41.81 28.86 41.81 27.91C41.81 27.58 42.07 27.33 42.4 27.33C42.72 27.33 42.98 27.58 42.98 27.91C42.98 28.22 43.23 28.48 43.55 28.48L44.84 28.48C45.15 28.48 45.41 28.22 45.41 27.91L45.41 23.25C45.41 22.93 45.15 22.68 44.84 22.68L43.55 22.68C43.23 22.68 42.98 22.93 42.98 23.25C42.98 23.57 42.72 23.83 42.4 23.83C42.07 23.83 41.81 23.57 41.81 23.25C41.81 22.29 42.59 21.52 43.55 21.52L44.84 21.52C45.79 21.52 46.57 22.29 46.57 23.25L46.57 27.91C46.57 28.86 45.79 29.64 44.84 29.64Z" fill="#FAFF00" fill-opacity="1.000000" fill-rule="nonzero"/>
	<path id="Vector" d="M49.32 28.19L45.99 28.19C45.66 28.19 45.41 27.93 45.41 27.61C45.41 27.28 45.66 27.03 45.99 27.03L48.74 27.03L48.74 24.12L45.99 24.12C45.66 24.12 45.41 23.86 45.41 23.54C45.41 23.21 45.66 22.96 45.99 22.96L49.32 22.96C49.65 22.96 49.91 23.21 49.91 23.54L49.91 27.61C49.91 27.93 49.65 28.19 49.32 28.19Z" fill="#FAFF00" fill-opacity="1.000000" fill-rule="nonzero"/>
</svg>
