<svg width="43.294189" height="43.570068" viewBox="0 0 43.2942 43.5701" fill="none" xmlns="http://www.w3.org/2000/svg" xmlns:xlink="http://www.w3.org/1999/xlink">
	<desc>
			Created with Pixso.
	</desc>
	<defs/>
	<path id="Vector" d="M6.01 43.56L6.01 43.56C3.6 43.56 1.65 41.61 1.65 39.21L1.65 25.3C1.65 24.8 2.06 24.4 2.56 24.4L9.46 24.4C9.96 24.4 10.37 24.8 10.37 25.3L10.37 39.21C10.37 41.61 8.42 43.57 6.01 43.57L6.01 43.56ZM3.47 26.21L3.47 39.21C3.47 40.61 4.61 41.75 6.01 41.75L6.01 41.75C7.41 41.75 8.55 40.61 8.55 39.21L8.55 26.21L3.47 26.21Z" fill="#FAFF00" fill-opacity="1.000000" fill-rule="nonzero"/>
	<path id="Vector" d="M8.1 26.21L3.92 26.21C3.42 26.21 3.01 25.8 3.01 25.3L3.01 22.49C3.01 21.49 3.83 20.67 4.83 20.67L7.19 20.67C8.19 20.67 9.01 21.49 9.01 22.49L9.01 25.3C9.01 25.8 8.6 26.21 8.1 26.21ZM4.83 24.4L7.19 24.4L7.19 22.49L4.83 22.49L4.83 24.4Z" fill="#FAFF00" fill-opacity="1.000000" fill-rule="nonzero"/>
	<path id="Vector" d="M39.36 26.21L35.19 26.21C34.68 26.21 34.28 25.8 34.28 25.3L34.28 22.49C34.28 21.49 35.09 20.67 36.09 20.67L38.46 20.67C39.46 20.67 40.27 21.49 40.27 22.49L40.27 25.3C40.27 25.8 39.86 26.21 39.36 26.21ZM36.09 24.4L38.46 24.4L38.46 22.49L36.09 22.49L36.09 24.4Z" fill="#FAFF00" fill-opacity="1.000000" fill-rule="nonzero"/>
	<path id="Vector" d="M37.28 43.56L37.27 43.56C34.87 43.56 32.91 41.61 32.91 39.21L32.91 25.3C32.91 24.8 33.32 24.4 33.82 24.4L40.73 24.4C41.23 24.4 41.63 24.8 41.63 25.3L41.63 39.21C41.63 41.61 39.68 43.57 37.28 43.57L37.28 43.56ZM34.73 26.21L34.73 39.21C34.73 40.61 35.87 41.75 37.27 41.75L37.28 41.75C38.68 41.75 39.82 40.61 39.82 39.21L39.82 26.21L34.73 26.21Z" fill="#FAFF00" fill-opacity="1.000000" fill-rule="nonzero"/>
	<path id="Vector" d="M11.12 26.21L0.9 26.21C0.4 26.21 0 25.8 0 25.3C0 24.8 0.4 24.4 0.9 24.4L11.12 24.4C11.62 24.4 12.02 24.8 12.02 25.3C12.02 25.8 11.62 26.21 11.12 26.21Z" fill="#FAFF00" fill-opacity="1.000000" fill-rule="nonzero"/>
	<path id="Vector" d="M42.38 26.21L32.17 26.21C31.67 26.21 31.26 25.8 31.26 25.3C31.26 24.8 31.67 24.4 32.17 24.4L42.38 24.4C42.88 24.4 43.29 24.8 43.29 25.3C43.29 25.8 42.88 26.21 42.38 26.21L42.38 26.21Z" fill="#FAFF00" fill-opacity="1.000000" fill-rule="nonzero"/>
	<path id="Vector" d="M21.9 31.6C19.23 31.6 17.05 29.42 17.05 26.75L17.05 6.88C17.05 4.08 14.78 1.81 11.99 1.81C9.19 1.81 6.92 4.08 6.92 6.88L6.92 21.58C6.92 22.08 6.51 22.49 6.01 22.49C5.51 22.49 5.1 22.08 5.1 21.58L5.1 6.88C5.1 3.08 8.19 0 11.99 0C15.78 0 18.87 3.08 18.87 6.88L18.87 26.75C18.87 28.42 20.23 29.78 21.9 29.78C23.57 29.78 24.92 28.42 24.92 26.75L24.92 14.86C24.92 11.21 27.9 8.23 31.55 8.23C35.21 8.23 38.18 11.21 38.18 14.86L38.18 21.58C38.18 22.08 37.78 22.49 37.27 22.49C36.77 22.49 36.37 22.08 36.37 21.58L36.37 14.86C36.37 12.21 34.21 10.05 31.55 10.05C28.9 10.05 26.74 12.21 26.74 14.86L26.74 26.75C26.74 29.42 24.57 31.6 21.9 31.6L21.9 31.6Z" fill="#FAFF00" fill-opacity="1.000000" fill-rule="nonzero"/>
	<path id="Vector" d="M9.46 34.89L2.56 34.89C2.06 34.89 1.65 34.48 1.65 33.98C1.65 33.48 2.06 33.07 2.56 33.07L9.46 33.07C9.96 33.07 10.37 33.48 10.37 33.98C10.37 34.48 9.96 34.89 9.46 34.89Z" fill="#FAFF00" fill-opacity="1.000000" fill-rule="nonzero"/>
	<path id="Vector" d="M9.46 30.9L2.56 30.9C2.06 30.9 1.65 30.5 1.65 30C1.65 29.49 2.06 29.09 2.56 29.09L9.46 29.09C9.96 29.09 10.37 29.49 10.37 30C10.37 30.5 9.96 30.9 9.46 30.9Z" fill="#FAFF00" fill-opacity="1.000000" fill-rule="nonzero"/>
	<path id="Vector" d="M9.46 38.87L2.56 38.87C2.06 38.87 1.65 38.47 1.65 37.96C1.65 37.46 2.06 37.06 2.56 37.06L9.46 37.06C9.96 37.06 10.37 37.46 10.37 37.96C10.37 38.47 9.96 38.87 9.46 38.87Z" fill="#FAFF00" fill-opacity="1.000000" fill-rule="nonzero"/>
	<path id="Vector" d="M40.73 34.89L33.82 34.89C33.32 34.89 32.92 34.48 32.92 33.98C32.92 33.48 33.32 33.07 33.82 33.07L40.73 33.07C41.23 33.07 41.63 33.48 41.63 33.98C41.63 34.48 41.23 34.89 40.73 34.89Z" fill="#FAFF00" fill-opacity="1.000000" fill-rule="nonzero"/>
	<path id="Vector" d="M40.73 30.9L33.82 30.9C33.32 30.9 32.92 30.5 32.92 30C32.92 29.49 33.32 29.09 33.82 29.09L40.73 29.09C41.23 29.09 41.63 29.49 41.63 30C41.63 30.5 41.23 30.9 40.73 30.9Z" fill="#FAFF00" fill-opacity="1.000000" fill-rule="nonzero"/>
	<path id="Vector" d="M40.73 38.87L33.82 38.87C33.32 38.87 32.92 38.47 32.92 37.96C32.92 37.46 33.32 37.06 33.82 37.06L40.73 37.06C41.23 37.06 41.63 37.46 41.63 37.96C41.63 38.47 41.23 38.87 40.73 38.87Z" fill="#FAFF00" fill-opacity="1.000000" fill-rule="nonzero"/>
</svg>
