<svg width="40.000000" height="40.000000" viewBox="0 0 40 40" fill="none" xmlns="http://www.w3.org/2000/svg" xmlns:xlink="http://www.w3.org/1999/xlink">
	<desc>
			Created with Pixso.
	</desc>
	<defs>
		<clipPath id="clip9_1459">
			<rect id="icon:inst" width="20.000000" height="20.000000" transform="translate(10.000000 10.000000)" fill="white" fill-opacity="0"/>
		</clipPath>
	</defs>
	<rect id="icon:inst" width="20.000000" height="20.000000" transform="translate(10.000000 10.000000)" fill="#FFFFFF" fill-opacity="0"/>
	<g clip-path="url(#clip9_1459)">
		<path id="Vector" d="M20 16.25C19.25 16.25 18.53 16.46 17.91 16.88C17.29 17.29 16.81 17.87 16.53 18.56C16.25 19.25 16.17 20 16.32 20.73C16.46 21.45 16.82 22.12 17.34 22.65C17.87 23.17 18.54 23.53 19.26 23.67C19.99 23.82 20.74 23.74 21.43 23.46C22.12 23.18 22.7 22.7 23.11 22.08C23.53 21.46 23.75 20.74 23.75 20C23.74 19 23.35 18.05 22.65 17.34C21.94 16.64 20.99 16.25 20 16.25ZM20 22.5C19.5 22.5 19.02 22.35 18.61 22.07C18.2 21.8 17.87 21.41 17.69 20.95C17.5 20.5 17.45 19.99 17.54 19.51C17.64 19.02 17.88 18.58 18.23 18.23C18.58 17.88 19.02 17.64 19.51 17.54C19.99 17.45 20.5 17.5 20.95 17.69C21.41 17.87 21.8 18.2 22.07 18.61C22.35 19.02 22.5 19.5 22.5 20C22.5 20.66 22.23 21.29 21.76 21.76C21.29 22.23 20.66 22.5 20 22.5ZM23.75 11.87L16.25 11.87C15.09 11.87 13.97 12.33 13.15 13.15C12.33 13.97 11.87 15.09 11.87 16.25L11.87 23.75C11.87 24.9 12.33 26.02 13.15 26.84C13.97 27.66 15.09 28.12 16.25 28.12L23.75 28.12C24.9 28.12 26.02 27.66 26.84 26.84C27.66 26.02 28.12 24.9 28.12 23.75L28.12 16.25C28.12 15.09 27.66 13.97 26.84 13.15C26.02 12.33 24.9 11.87 23.75 11.87ZM26.87 23.75C26.87 24.57 26.54 25.37 25.95 25.95C25.37 26.54 24.57 26.87 23.75 26.87L16.25 26.87C15.42 26.87 14.62 26.54 14.04 25.95C13.45 25.37 13.12 24.57 13.12 23.75L13.12 16.25C13.12 15.42 13.45 14.62 14.04 14.04C14.62 13.45 15.42 13.12 16.25 13.12L23.75 13.12C24.57 13.12 25.37 13.45 25.95 14.04C26.54 14.62 26.87 15.42 26.87 16.25L26.87 23.75ZM25 15.93C25 16.12 24.94 16.3 24.84 16.45C24.73 16.61 24.59 16.73 24.42 16.8C24.25 16.87 24.06 16.89 23.87 16.85C23.69 16.82 23.53 16.73 23.39 16.6C23.26 16.46 23.17 16.3 23.14 16.12C23.1 15.93 23.12 15.75 23.19 15.57C23.26 15.4 23.38 15.26 23.54 15.15C23.69 15.05 23.87 15 24.06 15C24.31 15 24.54 15.09 24.72 15.27C24.9 15.45 25 15.68 25 15.93Z" fill="#FFFFFF" fill-opacity="1.000000" fill-rule="nonzero"/>
	</g>
	<circle id="white" cx="20.000000" cy="20.000000" r="19.500000" stroke="#FFFFFF" stroke-opacity="1.000000" stroke-width="1.000000"/>
	<circle id="white" cx="20.000000" cy="20.000000" r="19.500000" stroke="#FFFFFF" stroke-opacity="1.000000" stroke-width="1.000000"/>
	<circle id="white" cx="20.000000" cy="20.000000" r="19.500000" stroke="#FFFFFF" stroke-opacity="1.000000" stroke-width="1.000000"/>
</svg>
