<svg width="104.238281" height="16.804688" viewBox="0 0 104.238 16.8047" fill="none" xmlns="http://www.w3.org/2000/svg" xmlns:xlink="http://www.w3.org/1999/xlink">
	<desc>
			Created with Pixso.
	</desc>
	<defs/>
	<path id="GYM24 - logo" d="M69.62 16.8L85.21 16.8L85.21 14.4L72 14.4L72 12Q72 11.65 72.09 11.33Q72.13 11.2 72.19 11.07Q72.32 10.78 72.51 10.53Q72.6 10.42 72.71 10.31Q72.79 10.23 72.87 10.16Q73.14 9.94 73.48 9.79Q73.65 9.72 73.83 9.68Q74.12 9.6 74.42 9.6L80.42 9.6Q81.11 9.6 81.74 9.42Q82.01 9.34 82.28 9.22Q82.93 8.94 83.46 8.5Q83.64 8.35 83.8 8.19Q83.94 8.05 84.07 7.9Q84.53 7.35 84.83 6.66Q84.96 6.37 85.05 6.06Q85.21 5.45 85.21 4.8Q85.21 4.15 85.05 3.54Q84.96 3.23 84.83 2.94Q84.53 2.25 84.07 1.7Q83.94 1.55 83.8 1.41Q83.64 1.24 83.46 1.1Q82.93 0.66 82.28 0.38Q82.01 0.26 81.74 0.18Q81.11 0 80.42 0L70.82 0L70.82 2.4L80.42 2.4Q80.76 2.4 81.07 2.49Q81.21 2.53 81.35 2.58Q81.68 2.73 81.95 2.95Q82.03 3.02 82.11 3.1Q82.17 3.16 82.22 3.22Q82.47 3.5 82.63 3.87Q82.7 4.02 82.74 4.19Q82.82 4.48 82.82 4.8Q82.82 5.12 82.74 5.41Q82.7 5.58 82.63 5.73Q82.47 6.09 82.22 6.38Q82.17 6.44 82.11 6.5Q82.03 6.58 81.95 6.65Q81.68 6.87 81.35 7.01Q81.21 7.07 81.07 7.11Q80.76 7.2 80.42 7.2L74.42 7.2Q73.66 7.2 72.97 7.42Q72.76 7.49 72.55 7.58Q71.9 7.87 71.37 8.31Q71.19 8.45 71.03 8.61Q70.87 8.78 70.72 8.95Q70.28 9.48 70 10.14Q69.88 10.4 69.8 10.68Q69.62 11.31 69.62 12L69.62 16.8ZM89.83 0L87.43 0L87.43 6Q87.43 6.76 87.65 7.45Q87.72 7.66 87.81 7.86Q88.1 8.52 88.53 9.05Q88.68 9.23 88.84 9.39Q89 9.55 89.18 9.7Q89.71 10.13 90.36 10.42Q90.57 10.51 90.78 10.58Q91.47 10.8 92.23 10.8L101.83 10.8L101.83 16.8L104.23 16.8L104.23 0L101.83 0L101.83 8.4L92.23 8.4Q91.9 8.4 91.58 8.31Q91.44 8.27 91.3 8.21Q90.99 8.08 90.74 7.88Q90.63 7.79 90.53 7.69Q90.44 7.6 90.35 7.49Q90.15 7.23 90.02 6.93Q89.96 6.79 89.92 6.64Q89.83 6.33 89.83 6L89.83 0Z" fill="#FAFF00" fill-opacity="1.000000" fill-rule="evenodd"/>
	<path id="GYM24 - logo" d="M7.73 16.8L18.55 16.8L18.55 7.2L5.97 7.2L5.97 9.6L16.14 9.6L16.14 14.4L7.73 14.4Q6.49 14.4 5.5 13.93Q4.85 13.62 4.33 13.16Q4.06 12.92 3.82 12.65Q3.14 11.83 2.77 10.74Q2.4 9.64 2.4 8.4Q2.4 7.16 2.77 6.07Q3.14 4.98 3.82 4.16Q4.04 3.9 4.3 3.67Q4.83 3.19 5.5 2.87Q6.49 2.4 7.73 2.4L18.55 2.4L18.55 0L7.73 0Q5.98 0 4.55 0.66Q3.57 1.11 2.79 1.79Q2.43 2.1 2.11 2.46Q2.03 2.55 1.96 2.64Q1.06 3.72 0.55 5.13Q0 6.66 0 8.4Q0 10.14 0.55 11.68Q1.07 13.15 2.02 14.25Q2.07 14.3 2.11 14.35Q2.42 14.7 2.77 15.01Q3.56 15.69 4.55 16.14Q5.98 16.8 7.73 16.8ZM40.7 13.08Q40.85 12.56 40.85 12L40.85 0L38.44 0L38.44 8.4L27.43 8.4Q26.83 8.4 26.29 8.22Q26.15 8.17 26.02 8.12Q25.52 7.9 25.12 7.57Q25 7.47 24.88 7.35Q24.76 7.23 24.66 7.1Q24.33 6.7 24.11 6.21Q24.06 6.07 24.01 5.94Q23.83 5.4 23.83 4.8L23.83 0L21.43 0L21.43 4.8Q21.43 5.74 21.7 6.59Q21.78 6.87 21.9 7.14Q22.24 7.94 22.77 8.6Q22.97 8.83 23.18 9.05Q23.4 9.26 23.63 9.45Q24.28 9.99 25.09 10.33Q25.36 10.45 25.64 10.53Q26.49 10.8 27.43 10.8L38.44 10.8L38.44 12Q38.44 12.14 38.42 12.29Q38.36 12.62 38.16 12.93Q37.87 13.37 37.38 13.69Q36.9 14.02 36.24 14.21Q35.58 14.4 34.85 14.4L21.43 14.4L21.43 16.8L34.85 16.8Q36.09 16.8 37.18 16.42Q38.27 16.05 39.08 15.4Q39.73 14.88 40.17 14.22Q40.28 14.05 40.37 13.88Q40.58 13.49 40.7 13.08ZM54.42 16.8L56.82 16.8L56.82 8.4Q56.82 7.45 57.09 6.59Q57.18 6.33 57.29 6.07Q57.64 5.27 58.16 4.63Q58.36 4.38 58.58 4.16Q58.81 3.94 59.05 3.74Q59.7 3.22 60.49 2.87Q60.75 2.76 61.02 2.67Q61.87 2.4 62.82 2.4L64.12 2.4L64.12 16.8L66.52 16.8L66.52 0L62.82 0Q61.67 0 60.61 0.29Q59.62 0.57 58.74 1.07Q58.68 1.1 58.62 1.13Q58.13 1.42 57.68 1.77Q57.29 2.07 56.94 2.42Q56.54 2.82 56.19 3.26Q55.88 3.65 55.62 4.08Q55.3 3.56 54.92 3.1Q54.63 2.74 54.3 2.42Q53.95 2.07 53.56 1.77Q53.11 1.42 52.61 1.13Q52.55 1.1 52.5 1.07Q51.62 0.57 50.63 0.29Q49.57 0 48.42 0L44.73 0L44.73 16.8L47.13 16.8L47.13 2.4L48.42 2.4Q49.33 2.4 50.17 2.66Q50.47 2.75 50.75 2.87Q51.58 3.23 52.25 3.78Q52.47 3.96 52.66 4.16Q52.9 4.4 53.11 4.66Q53.62 5.29 53.95 6.07Q54.05 6.31 54.13 6.55Q54.42 7.43 54.42 8.4L54.42 16.8Z" fill="#FFFFFF" fill-opacity="1.000000" fill-rule="evenodd"/>
</svg>
