<svg width="12.966309" height="16.570312" viewBox="0 0 12.9663 16.5703" fill="none" xmlns="http://www.w3.org/2000/svg" xmlns:xlink="http://www.w3.org/1999/xlink">
	<desc>
			Created with Pixso.
	</desc>
	<defs/>
	<path id="Vector" d="M1.28 4.8C1.04 3.23 2.15 1.82 3.84 1.3C4.14 1.21 4.47 1.23 4.75 1.37C5.03 1.51 5.25 1.75 5.36 2.05L5.9 3.5C5.99 3.73 6.01 3.98 5.95 4.23C5.89 4.47 5.76 4.69 5.58 4.86L3.96 6.34C3.88 6.41 3.82 6.5 3.79 6.61C3.76 6.71 3.75 6.82 3.77 6.93L3.79 6.99L3.83 7.15C4.03 7.94 4.33 8.7 4.74 9.41C5.18 10.16 5.72 10.85 6.36 11.44L6.41 11.49C6.49 11.56 6.59 11.61 6.69 11.63C6.8 11.65 6.91 11.65 7.01 11.62L9.1 10.96C9.34 10.88 9.59 10.88 9.83 10.95C10.07 11.02 10.28 11.16 10.44 11.36L11.43 12.56C11.84 13.06 11.79 13.79 11.32 14.23C10.02 15.44 8.24 15.69 7 14.69C5.48 13.47 4.2 11.97 3.22 10.28C2.23 8.59 1.58 6.73 1.28 4.8ZM5.08 7.01L6.42 5.78C6.79 5.44 7.05 5 7.16 4.52C7.28 4.03 7.25 3.52 7.07 3.06L6.53 1.61C6.31 1.02 5.87 0.53 5.3 0.25C4.74 -0.03 4.08 -0.08 3.48 0.1C1.37 0.75 -0.31 2.63 0.04 4.99C0.29 6.64 0.87 8.73 2.14 10.91C3.2 12.73 4.58 14.35 6.22 15.67C8.08 17.16 10.56 16.65 12.17 15.15C12.63 14.72 12.91 14.13 12.96 13.5C13 12.87 12.8 12.25 12.4 11.77L11.41 10.56C11.09 10.18 10.67 9.9 10.19 9.76C9.71 9.61 9.2 9.62 8.73 9.77L6.99 10.31C6.54 9.85 6.15 9.34 5.82 8.79C5.5 8.23 5.26 7.63 5.08 7.01L5.08 7.01Z" fill="#FFFFFF" fill-opacity="1.000000" fill-rule="nonzero"/>
</svg>
