<svg width="0" height="0" fill="none" style="visibility: hidden; position: absolute;" aria-hidden="true">
    <symbol id="15000Sq.m." viewBox="0 0 41.2363 52" fill="none" xmlns="http://www.w3.org/2000/svg">
        <defs />
        <path id="Vector__15000Sq.m."
            d="M13.08 48.15L17.51 43.61L12.27 38.23L7.84 42.77L13.08 48.15ZM15.2 43.61L13.08 45.78L10.15 42.77L12.27 40.6L15.2 43.61Z"
            fill="#FAFF00" fill-opacity="1.000000" fill-rule="nonzero" />
        <path id="Vector__15000Sq.m."
            d="M41.23 6.7L34.69 0L32.38 0L0 32.35L0 33.89L1.29 35.22L0 36.55L0 38.91L11.91 52L14.24 52L21.26 44.79L21.26 42.44L14.19 34.47L41.23 6.7ZM1.63 33.2L1.63 33.06L6.19 28.5L10.05 32.46L11.21 31.27L7.36 27.33L8.68 26.02L10.87 28.27L12.03 27.08L9.85 24.85L11.16 23.54L14.96 27.43L16.12 26.24L12.34 22.37L13.65 21.06L15.78 23.24L16.93 22.05L14.82 19.89L16.14 18.57L19.87 22.4L21.03 21.21L17.31 17.4L18.62 16.09L20.69 18.21L21.84 17.02L19.8 14.92L21.11 13.61L24.78 17.37L25.93 16.18L22.28 12.44L23.6 11.13L25.6 13.18L26.75 11.99L24.77 9.96L26.08 8.64L29.69 12.34L30.84 11.15L27.25 7.46L28.56 6.15L30.5 8.14L31.66 6.95L29.73 4.98L31.05 3.67L34.59 7.3L35.75 6.11L32.22 2.5L33.04 1.67L34.01 1.67L38.92 6.71L12.78 33.55L3.78 32.67L2.45 34.04L1.63 33.2ZM1.63 37.25L4.39 34.42L11.28 35.09L4.81 41.74L1.63 38.25L1.63 37.25ZM19.63 43.09L19.63 44.1L13.56 50.32L12.62 50.32L5.93 42.96L13.04 35.66L19.63 43.09Z"
            fill="#FAFF00" fill-opacity="1.000000" fill-rule="nonzero" />
    </symbol>
    <symbol id="equipment" viewBox="0 0 49.9109 51.1663" fill="none" xmlns="http://www.w3.org/2000/svg">
        <defs />
        <path id="Vector__equipment"
            d="M35.21 28.19L14.69 28.19C14.36 28.19 14.11 27.93 14.11 27.61C14.11 27.28 14.36 27.03 14.69 27.03L35.2 27.03C35.52 27.03 35.78 27.28 35.78 27.61C35.78 27.93 35.52 28.19 35.21 28.19L35.21 28.19ZM35.21 24.12L14.69 24.12C14.36 24.12 14.11 23.86 14.11 23.54C14.11 23.21 14.36 22.96 14.69 22.96L35.2 22.96C35.52 22.96 35.78 23.21 35.78 23.54C35.78 23.86 35.52 24.12 35.21 24.12L35.21 24.12Z"
            fill="#FAFF00" fill-opacity="1.000000" fill-rule="nonzero" />
        <path id="Vector__equipment"
            d="M13.54 33.48L12.25 33.48C11.3 33.48 10.52 32.7 10.52 31.75L10.52 19.41C10.52 18.46 11.3 17.68 12.25 17.68L13.54 17.68C14.49 17.68 15.27 18.46 15.27 19.41L15.27 31.75C15.27 32.7 14.5 33.48 13.54 33.48ZM12.25 18.84C11.94 18.84 11.68 19.1 11.68 19.41L11.68 31.76C11.68 32.07 11.94 32.33 12.25 32.33L13.54 32.33C13.85 32.33 14.11 32.07 14.11 31.76L14.11 19.41C14.11 19.1 13.85 18.84 13.54 18.84L12.25 18.84Z"
            fill="#FAFF00" fill-opacity="1.000000" fill-rule="nonzero" />
        <path id="Vector__equipment"
            d="M9.95 31.21L8.66 31.21C7.7 31.21 6.92 30.43 6.92 29.48L6.92 21.68C6.92 20.72 7.7 19.95 8.66 19.95L9.95 19.95C10.9 19.95 11.68 20.72 11.68 21.68C11.68 22 11.42 22.26 11.1 22.26C10.77 22.26 10.52 22 10.52 21.68C10.52 21.36 10.26 21.11 9.95 21.11L8.66 21.11C8.34 21.11 8.09 21.36 8.09 21.68L8.09 29.48C8.09 29.79 8.34 30.05 8.66 30.05L9.95 30.05C10.26 30.05 10.52 29.79 10.52 29.48C10.52 29.15 10.77 28.9 11.1 28.9C11.42 28.9 11.68 29.15 11.68 29.48C11.68 30.43 10.9 31.21 9.95 31.21Z"
            fill="#FAFF00" fill-opacity="1.000000" fill-rule="nonzero" />
        <path id="Vector__equipment"
            d="M6.35 29.64L5.06 29.64C4.11 29.64 3.33 28.86 3.33 27.91L3.33 23.25C3.33 22.29 4.11 21.52 5.06 21.52L6.35 21.52C7.31 21.52 8.09 22.29 8.09 23.25C8.09 23.57 7.83 23.83 7.51 23.83C7.18 23.83 6.92 23.57 6.92 23.25C6.92 22.93 6.67 22.68 6.35 22.68L5.06 22.68C4.75 22.68 4.49 22.93 4.49 23.25L4.49 27.91C4.49 28.22 4.75 28.48 5.06 28.48L6.35 28.48C6.67 28.48 6.92 28.22 6.92 27.91C6.92 27.58 7.18 27.33 7.51 27.33C7.83 27.33 8.09 27.58 8.09 27.91C8.09 28.86 7.31 29.64 6.35 29.64Z"
            fill="#FAFF00" fill-opacity="1.000000" fill-rule="nonzero" />
        <path id="Vector__equipment"
            d="M3.91 28.19L0.58 28.19C0.25 28.19 0 27.93 0 27.61L0 23.54C0 23.21 0.25 22.96 0.58 22.96L3.91 22.96C4.24 22.96 4.49 23.21 4.49 23.54C4.49 23.86 4.24 24.12 3.91 24.12L1.16 24.12L1.16 27.03L3.91 27.03C4.24 27.03 4.49 27.28 4.49 27.61C4.49 27.93 4.24 28.19 3.91 28.19Z"
            fill="#FAFF00" fill-opacity="1.000000" fill-rule="nonzero" />
        <path id="Vector__equipment"
            d="M35.21 10.52L14.69 10.52C14.36 10.52 14.11 10.26 14.11 9.93C14.11 9.61 14.36 9.35 14.69 9.35L35.2 9.35C35.52 9.35 35.78 9.61 35.78 9.93C35.78 10.26 35.52 10.52 35.21 10.52L35.21 10.52ZM35.21 6.45L14.69 6.45C14.36 6.45 14.11 6.19 14.11 5.87C14.11 5.54 14.36 5.28 14.69 5.28L35.2 5.28C35.52 5.28 35.78 5.54 35.78 5.87C35.78 6.19 35.52 6.45 35.21 6.45L35.21 6.45Z"
            fill="#FAFF00" fill-opacity="1.000000" fill-rule="nonzero" />
        <path id="Vector__equipment"
            d="M13.14 15.81L11.41 15.81C10.24 15.81 9.28 14.85 9.28 13.68L9.28 2.12C9.28 0.95 10.24 0 11.41 0L13.14 0C14.32 0 15.27 0.95 15.27 2.12L15.27 13.67C15.27 14.85 14.32 15.81 13.14 15.81L13.14 15.81ZM11.41 1.16C10.88 1.16 10.45 1.59 10.45 2.12L10.45 13.67C10.45 14.2 10.88 14.63 11.41 14.63L13.14 14.63C13.68 14.63 14.11 14.2 14.11 13.67L14.11 2.12C14.11 1.59 13.68 1.16 13.14 1.16L11.41 1.16Z"
            fill="#FAFF00" fill-opacity="1.000000" fill-rule="nonzero" />
        <path id="Vector__equipment"
            d="M8.32 12.11L6.59 12.11C5.41 12.11 4.46 11.16 4.46 9.98L4.46 5.82C4.46 4.65 5.41 3.69 6.59 3.69L8.32 3.69C9.49 3.69 10.45 4.65 10.45 5.82C10.45 6.15 10.19 6.4 9.86 6.4C9.54 6.4 9.28 6.15 9.28 5.82C9.28 5.29 8.85 4.86 8.32 4.86L6.59 4.86C6.05 4.86 5.62 5.29 5.62 5.82L5.62 9.97C5.62 10.51 6.05 10.94 6.59 10.94L8.32 10.94C8.85 10.94 9.28 10.51 9.28 9.97C9.28 9.64 9.54 9.39 9.86 9.39C10.19 9.39 10.45 9.64 10.45 9.97C10.45 11.16 9.49 12.11 8.32 12.11Z"
            fill="#FAFF00" fill-opacity="1.000000" fill-rule="nonzero" />
        <path id="Vector__equipment"
            d="M38.49 15.81L36.76 15.81C35.58 15.81 34.63 14.85 34.63 13.68L34.63 2.12C34.63 0.95 35.58 0 36.76 0L38.49 0C39.66 0 40.62 0.95 40.62 2.12L40.62 13.67C40.62 14.85 39.66 15.81 38.49 15.81L38.49 15.81ZM36.76 1.16C36.22 1.16 35.79 1.59 35.79 2.12L35.79 13.67C35.79 14.2 36.22 14.63 36.76 14.63L38.49 14.63C39.02 14.63 39.45 14.2 39.45 13.67L39.45 2.12C39.45 1.59 39.02 1.16 38.49 1.16L36.76 1.16Z"
            fill="#FAFF00" fill-opacity="1.000000" fill-rule="nonzero" />
        <path id="Vector__equipment"
            d="M43.33 12.11L41.59 12.11C40.42 12.11 39.47 11.16 39.47 9.98C39.47 9.66 39.72 9.4 40.05 9.4C40.37 9.4 40.63 9.66 40.63 9.98C40.63 10.52 41.06 10.95 41.59 10.95L43.33 10.95C43.86 10.95 44.29 10.52 44.29 9.98L44.29 5.82C44.29 5.29 43.86 4.86 43.33 4.86L41.59 4.86C41.06 4.86 40.63 5.29 40.63 5.82C40.63 6.15 40.37 6.4 40.05 6.4C39.72 6.4 39.47 6.15 39.47 5.82C39.47 4.65 40.42 3.69 41.59 3.69L43.33 3.69C44.5 3.69 45.45 4.65 45.45 5.82L45.45 9.97C45.45 11.16 44.5 12.11 43.33 12.11Z"
            fill="#FAFF00" fill-opacity="1.000000" fill-rule="nonzero" />
        <path id="Vector__equipment"
            d="M35.21 45.87L14.69 45.87C14.36 45.87 14.11 45.62 14.11 45.29C14.11 44.96 14.36 44.71 14.69 44.71L35.2 44.71C35.52 44.71 35.78 44.96 35.78 45.29C35.78 45.62 35.52 45.87 35.21 45.87L35.21 45.87ZM35.21 41.8L14.69 41.8C14.36 41.8 14.11 41.55 14.11 41.22C14.11 40.9 14.36 40.64 14.69 40.64L35.2 40.64C35.52 40.64 35.78 40.9 35.78 41.22C35.78 41.55 35.52 41.8 35.21 41.8L35.21 41.8Z"
            fill="#FAFF00" fill-opacity="1.000000" fill-rule="nonzero" />
        <path id="Vector__equipment"
            d="M13.14 51.16L11.41 51.16C10.24 51.16 9.28 50.21 9.28 49.03L9.28 37.49C9.28 36.31 10.24 35.36 11.41 35.36L13.14 35.36C14.32 35.36 15.27 36.31 15.27 37.49L15.27 49.03C15.27 50.21 14.32 51.16 13.14 51.16ZM11.41 36.51C10.88 36.51 10.45 36.94 10.45 37.48L10.45 49.02C10.45 49.56 10.88 49.99 11.41 49.99L13.14 49.99C13.68 49.99 14.11 49.56 14.11 49.02L14.11 37.48C14.11 36.94 13.68 36.51 13.14 36.51L11.41 36.51Z"
            fill="#FAFF00" fill-opacity="1.000000" fill-rule="nonzero" />
        <path id="Vector__equipment"
            d="M8.32 47.46L6.59 47.46C5.41 47.46 4.46 46.51 4.46 45.34L4.46 41.19C4.46 40.01 5.41 39.06 6.59 39.06L8.32 39.06C9.49 39.06 10.45 40.01 10.45 41.19C10.45 41.51 10.19 41.77 9.86 41.77C9.54 41.77 9.28 41.51 9.28 41.19C9.28 40.65 8.85 40.22 8.32 40.22L6.59 40.22C6.05 40.22 5.62 40.65 5.62 41.19L5.62 45.34C5.62 45.87 6.05 46.3 6.59 46.3L8.32 46.3C8.85 46.3 9.28 45.87 9.28 45.34C9.28 45.01 9.54 44.76 9.86 44.76C10.19 44.76 10.45 45.01 10.45 45.34C10.45 46.51 9.49 47.46 8.32 47.46Z"
            fill="#FAFF00" fill-opacity="1.000000" fill-rule="nonzero" />
        <path id="Vector__equipment"
            d="M38.49 51.16L36.76 51.16C35.58 51.16 34.63 50.21 34.63 49.03L34.63 37.49C34.63 36.31 35.58 35.36 36.76 35.36L38.49 35.36C39.66 35.36 40.62 36.31 40.62 37.49L40.62 49.03C40.62 50.21 39.66 51.16 38.49 51.16ZM36.76 36.51C36.22 36.51 35.79 36.94 35.79 37.48L35.79 49.02C35.79 49.56 36.22 49.99 36.76 49.99L38.49 49.99C39.02 49.99 39.45 49.56 39.45 49.02L39.45 37.48C39.45 36.94 39.02 36.51 38.49 36.51L36.76 36.51Z"
            fill="#FAFF00" fill-opacity="1.000000" fill-rule="nonzero" />
        <path id="Vector__equipment"
            d="M43.33 47.46L41.59 47.46C40.42 47.46 39.47 46.51 39.47 45.34C39.47 45.01 39.72 44.76 40.05 44.76C40.37 44.76 40.63 45.01 40.63 45.34C40.63 45.87 41.06 46.3 41.59 46.3L43.33 46.3C43.86 46.3 44.29 45.87 44.29 45.34L44.29 41.19C44.29 40.65 43.86 40.22 43.33 40.22L41.59 40.22C41.06 40.22 40.63 40.65 40.63 41.19C40.63 41.51 40.37 41.77 40.05 41.77C39.72 41.77 39.47 41.51 39.47 41.19C39.47 40.01 40.42 39.06 41.59 39.06L43.33 39.06C44.5 39.06 45.45 40.01 45.45 41.19L45.45 45.34C45.45 46.51 44.5 47.46 43.33 47.46Z"
            fill="#FAFF00" fill-opacity="1.000000" fill-rule="nonzero" />
        <path id="Vector__equipment"
            d="M37.65 33.48L36.36 33.48C35.41 33.48 34.63 32.7 34.63 31.75L34.63 19.41C34.63 18.46 35.41 17.68 36.36 17.68L37.65 17.68C38.61 17.68 39.38 18.46 39.38 19.41L39.38 31.75C39.38 32.7 38.61 33.48 37.65 33.48ZM36.36 18.84C36.05 18.84 35.79 19.1 35.79 19.41L35.79 31.76C35.79 32.07 36.05 32.33 36.36 32.33L37.65 32.33C37.97 32.33 38.22 32.07 38.22 31.76L38.22 19.41C38.22 19.1 37.97 18.84 37.65 18.84L36.36 18.84Z"
            fill="#FAFF00" fill-opacity="1.000000" fill-rule="nonzero" />
        <path id="Vector__equipment"
            d="M41.24 31.21L39.95 31.21C39 31.21 38.22 30.43 38.22 29.48C38.22 29.15 38.48 28.9 38.8 28.9C39.13 28.9 39.38 29.15 39.38 29.48C39.38 29.79 39.64 30.05 39.95 30.05L41.24 30.05C41.56 30.05 41.81 29.79 41.81 29.48L41.81 21.68C41.81 21.36 41.56 21.11 41.24 21.11L39.95 21.11C39.64 21.11 39.38 21.36 39.38 21.68C39.38 22 39.13 22.26 38.8 22.26C38.48 22.26 38.22 22 38.22 21.68C38.22 20.72 39 19.95 39.95 19.95L41.24 19.95C42.2 19.95 42.98 20.72 42.98 21.68L42.98 29.48C42.98 30.43 42.2 31.21 41.24 31.21Z"
            fill="#FAFF00" fill-opacity="1.000000" fill-rule="nonzero" />
        <path id="Vector__equipment"
            d="M44.84 29.64L43.55 29.64C42.59 29.64 41.81 28.86 41.81 27.91C41.81 27.58 42.07 27.33 42.4 27.33C42.72 27.33 42.98 27.58 42.98 27.91C42.98 28.22 43.23 28.48 43.55 28.48L44.84 28.48C45.15 28.48 45.41 28.22 45.41 27.91L45.41 23.25C45.41 22.93 45.15 22.68 44.84 22.68L43.55 22.68C43.23 22.68 42.98 22.93 42.98 23.25C42.98 23.57 42.72 23.83 42.4 23.83C42.07 23.83 41.81 23.57 41.81 23.25C41.81 22.29 42.59 21.52 43.55 21.52L44.84 21.52C45.79 21.52 46.57 22.29 46.57 23.25L46.57 27.91C46.57 28.86 45.79 29.64 44.84 29.64Z"
            fill="#FAFF00" fill-opacity="1.000000" fill-rule="nonzero" />
        <path id="Vector__equipment"
            d="M49.32 28.19L45.99 28.19C45.66 28.19 45.41 27.93 45.41 27.61C45.41 27.28 45.66 27.03 45.99 27.03L48.74 27.03L48.74 24.12L45.99 24.12C45.66 24.12 45.41 23.86 45.41 23.54C45.41 23.21 45.66 22.96 45.99 22.96L49.32 22.96C49.65 22.96 49.91 23.21 49.91 23.54L49.91 27.61C49.91 27.93 49.65 28.19 49.32 28.19Z"
            fill="#FAFF00" fill-opacity="1.000000" fill-rule="nonzero" />
    </symbol>
    <symbol id="fitnessZones" viewBox="0 0 43.2942 43.5701" fill="none" xmlns="http://www.w3.org/2000/svg">
        <defs />
        <path id="Vector__fitnessZones"
            d="M6.01 43.56L6.01 43.56C3.6 43.56 1.65 41.61 1.65 39.21L1.65 25.3C1.65 24.8 2.06 24.4 2.56 24.4L9.46 24.4C9.96 24.4 10.37 24.8 10.37 25.3L10.37 39.21C10.37 41.61 8.42 43.57 6.01 43.57L6.01 43.56ZM3.47 26.21L3.47 39.21C3.47 40.61 4.61 41.75 6.01 41.75L6.01 41.75C7.41 41.75 8.55 40.61 8.55 39.21L8.55 26.21L3.47 26.21Z"
            fill="#FAFF00" fill-opacity="1.000000" fill-rule="nonzero" />
        <path id="Vector__fitnessZones"
            d="M8.1 26.21L3.92 26.21C3.42 26.21 3.01 25.8 3.01 25.3L3.01 22.49C3.01 21.49 3.83 20.67 4.83 20.67L7.19 20.67C8.19 20.67 9.01 21.49 9.01 22.49L9.01 25.3C9.01 25.8 8.6 26.21 8.1 26.21ZM4.83 24.4L7.19 24.4L7.19 22.49L4.83 22.49L4.83 24.4Z"
            fill="#FAFF00" fill-opacity="1.000000" fill-rule="nonzero" />
        <path id="Vector__fitnessZones"
            d="M39.36 26.21L35.19 26.21C34.68 26.21 34.28 25.8 34.28 25.3L34.28 22.49C34.28 21.49 35.09 20.67 36.09 20.67L38.46 20.67C39.46 20.67 40.27 21.49 40.27 22.49L40.27 25.3C40.27 25.8 39.86 26.21 39.36 26.21ZM36.09 24.4L38.46 24.4L38.46 22.49L36.09 22.49L36.09 24.4Z"
            fill="#FAFF00" fill-opacity="1.000000" fill-rule="nonzero" />
        <path id="Vector__fitnessZones"
            d="M37.28 43.56L37.27 43.56C34.87 43.56 32.91 41.61 32.91 39.21L32.91 25.3C32.91 24.8 33.32 24.4 33.82 24.4L40.73 24.4C41.23 24.4 41.63 24.8 41.63 25.3L41.63 39.21C41.63 41.61 39.68 43.57 37.28 43.57L37.28 43.56ZM34.73 26.21L34.73 39.21C34.73 40.61 35.87 41.75 37.27 41.75L37.28 41.75C38.68 41.75 39.82 40.61 39.82 39.21L39.82 26.21L34.73 26.21Z"
            fill="#FAFF00" fill-opacity="1.000000" fill-rule="nonzero" />
        <path id="Vector__fitnessZones"
            d="M11.12 26.21L0.9 26.21C0.4 26.21 0 25.8 0 25.3C0 24.8 0.4 24.4 0.9 24.4L11.12 24.4C11.62 24.4 12.02 24.8 12.02 25.3C12.02 25.8 11.62 26.21 11.12 26.21Z"
            fill="#FAFF00" fill-opacity="1.000000" fill-rule="nonzero" />
        <path id="Vector__fitnessZones"
            d="M42.38 26.21L32.17 26.21C31.67 26.21 31.26 25.8 31.26 25.3C31.26 24.8 31.67 24.4 32.17 24.4L42.38 24.4C42.88 24.4 43.29 24.8 43.29 25.3C43.29 25.8 42.88 26.21 42.38 26.21L42.38 26.21Z"
            fill="#FAFF00" fill-opacity="1.000000" fill-rule="nonzero" />
        <path id="Vector__fitnessZones"
            d="M21.9 31.6C19.23 31.6 17.05 29.42 17.05 26.75L17.05 6.88C17.05 4.08 14.78 1.81 11.99 1.81C9.19 1.81 6.92 4.08 6.92 6.88L6.92 21.58C6.92 22.08 6.51 22.49 6.01 22.49C5.51 22.49 5.1 22.08 5.1 21.58L5.1 6.88C5.1 3.08 8.19 0 11.99 0C15.78 0 18.87 3.08 18.87 6.88L18.87 26.75C18.87 28.42 20.23 29.78 21.9 29.78C23.57 29.78 24.92 28.42 24.92 26.75L24.92 14.86C24.92 11.21 27.9 8.23 31.55 8.23C35.21 8.23 38.18 11.21 38.18 14.86L38.18 21.58C38.18 22.08 37.78 22.49 37.27 22.49C36.77 22.49 36.37 22.08 36.37 21.58L36.37 14.86C36.37 12.21 34.21 10.05 31.55 10.05C28.9 10.05 26.74 12.21 26.74 14.86L26.74 26.75C26.74 29.42 24.57 31.6 21.9 31.6L21.9 31.6Z"
            fill="#FAFF00" fill-opacity="1.000000" fill-rule="nonzero" />
        <path id="Vector__fitnessZones"
            d="M9.46 34.89L2.56 34.89C2.06 34.89 1.65 34.48 1.65 33.98C1.65 33.48 2.06 33.07 2.56 33.07L9.46 33.07C9.96 33.07 10.37 33.48 10.37 33.98C10.37 34.48 9.96 34.89 9.46 34.89Z"
            fill="#FAFF00" fill-opacity="1.000000" fill-rule="nonzero" />
        <path id="Vector__fitnessZones"
            d="M9.46 30.9L2.56 30.9C2.06 30.9 1.65 30.5 1.65 30C1.65 29.49 2.06 29.09 2.56 29.09L9.46 29.09C9.96 29.09 10.37 29.49 10.37 30C10.37 30.5 9.96 30.9 9.46 30.9Z"
            fill="#FAFF00" fill-opacity="1.000000" fill-rule="nonzero" />
        <path id="Vector__fitnessZones"
            d="M9.46 38.87L2.56 38.87C2.06 38.87 1.65 38.47 1.65 37.96C1.65 37.46 2.06 37.06 2.56 37.06L9.46 37.06C9.96 37.06 10.37 37.46 10.37 37.96C10.37 38.47 9.96 38.87 9.46 38.87Z"
            fill="#FAFF00" fill-opacity="1.000000" fill-rule="nonzero" />
        <path id="Vector__fitnessZones"
            d="M40.73 34.89L33.82 34.89C33.32 34.89 32.92 34.48 32.92 33.98C32.92 33.48 33.32 33.07 33.82 33.07L40.73 33.07C41.23 33.07 41.63 33.48 41.63 33.98C41.63 34.48 41.23 34.89 40.73 34.89Z"
            fill="#FAFF00" fill-opacity="1.000000" fill-rule="nonzero" />
        <path id="Vector__fitnessZones"
            d="M40.73 30.9L33.82 30.9C33.32 30.9 32.92 30.5 32.92 30C32.92 29.49 33.32 29.09 33.82 29.09L40.73 29.09C41.23 29.09 41.63 29.49 41.63 30C41.63 30.5 41.23 30.9 40.73 30.9Z"
            fill="#FAFF00" fill-opacity="1.000000" fill-rule="nonzero" />
        <path id="Vector__fitnessZones"
            d="M40.73 38.87L33.82 38.87C33.32 38.87 32.92 38.47 32.92 37.96C32.92 37.46 33.32 37.06 33.82 37.06L40.73 37.06C41.23 37.06 41.63 37.46 41.63 37.96C41.63 38.47 41.23 38.87 40.73 38.87Z"
            fill="#FAFF00" fill-opacity="1.000000" fill-rule="nonzero" />
    </symbol>
    <symbol id="instagram" viewBox="0 0 40 40" fill="none" xmlns="http://www.w3.org/2000/svg">
        <defs>
            <clipPath id="clip9_1459__instagram">
                <rect id="icon:inst__instagram" width="20.000000" height="20.000000"
                    transform="translate(10.000000 10.000000)" fill="white" fill-opacity="0" />
            </clipPath>
        </defs>
        <rect id="icon:inst__instagram" width="20.000000" height="20.000000" transform="translate(10.000000 10.000000)"
            fill="#FFFFFF" fill-opacity="0" />
        <g clip-path="url(#clip9_1459__instagram)">
            <path id="Vector__instagram"
                d="M20 16.25C19.25 16.25 18.53 16.46 17.91 16.88C17.29 17.29 16.81 17.87 16.53 18.56C16.25 19.25 16.17 20 16.32 20.73C16.46 21.45 16.82 22.12 17.34 22.65C17.87 23.17 18.54 23.53 19.26 23.67C19.99 23.82 20.74 23.74 21.43 23.46C22.12 23.18 22.7 22.7 23.11 22.08C23.53 21.46 23.75 20.74 23.75 20C23.74 19 23.35 18.05 22.65 17.34C21.94 16.64 20.99 16.25 20 16.25ZM20 22.5C19.5 22.5 19.02 22.35 18.61 22.07C18.2 21.8 17.87 21.41 17.69 20.95C17.5 20.5 17.45 19.99 17.54 19.51C17.64 19.02 17.88 18.58 18.23 18.23C18.58 17.88 19.02 17.64 19.51 17.54C19.99 17.45 20.5 17.5 20.95 17.69C21.41 17.87 21.8 18.2 22.07 18.61C22.35 19.02 22.5 19.5 22.5 20C22.5 20.66 22.23 21.29 21.76 21.76C21.29 22.23 20.66 22.5 20 22.5ZM23.75 11.87L16.25 11.87C15.09 11.87 13.97 12.33 13.15 13.15C12.33 13.97 11.87 15.09 11.87 16.25L11.87 23.75C11.87 24.9 12.33 26.02 13.15 26.84C13.97 27.66 15.09 28.12 16.25 28.12L23.75 28.12C24.9 28.12 26.02 27.66 26.84 26.84C27.66 26.02 28.12 24.9 28.12 23.75L28.12 16.25C28.12 15.09 27.66 13.97 26.84 13.15C26.02 12.33 24.9 11.87 23.75 11.87ZM26.87 23.75C26.87 24.57 26.54 25.37 25.95 25.95C25.37 26.54 24.57 26.87 23.75 26.87L16.25 26.87C15.42 26.87 14.62 26.54 14.04 25.95C13.45 25.37 13.12 24.57 13.12 23.75L13.12 16.25C13.12 15.42 13.45 14.62 14.04 14.04C14.62 13.45 15.42 13.12 16.25 13.12L23.75 13.12C24.57 13.12 25.37 13.45 25.95 14.04C26.54 14.62 26.87 15.42 26.87 16.25L26.87 23.75ZM25 15.93C25 16.12 24.94 16.3 24.84 16.45C24.73 16.61 24.59 16.73 24.42 16.8C24.25 16.87 24.06 16.89 23.87 16.85C23.69 16.82 23.53 16.73 23.39 16.6C23.26 16.46 23.17 16.3 23.14 16.12C23.1 15.93 23.12 15.75 23.19 15.57C23.26 15.4 23.38 15.26 23.54 15.15C23.69 15.05 23.87 15 24.06 15C24.31 15 24.54 15.09 24.72 15.27C24.9 15.45 25 15.68 25 15.93Z"
                fill="#FFFFFF" fill-opacity="1.000000" fill-rule="nonzero" />
        </g>
        <circle id="white__instagram" cx="20.000000" cy="20.000000" r="19.500000" stroke="#FFFFFF"
            stroke-opacity="1.000000" stroke-width="1.000000" />
        <circle id="white__instagram" cx="20.000000" cy="20.000000" r="19.500000" stroke="#FFFFFF"
            stroke-opacity="1.000000" stroke-width="1.000000" />
        <circle id="white__instagram" cx="20.000000" cy="20.000000" r="19.500000" stroke="#FFFFFF"
            stroke-opacity="1.000000" stroke-width="1.000000" />
    </symbol>
    <symbol id="Logo" viewBox="0 0 104.238 16.8047" fill="none" xmlns="http://www.w3.org/2000/svg">
        <defs />
        <path id="GYM24 - logo__Logo"
            d="M69.62 16.8L85.21 16.8L85.21 14.4L72 14.4L72 12Q72 11.65 72.09 11.33Q72.13 11.2 72.19 11.07Q72.32 10.78 72.51 10.53Q72.6 10.42 72.71 10.31Q72.79 10.23 72.87 10.16Q73.14 9.94 73.48 9.79Q73.65 9.72 73.83 9.68Q74.12 9.6 74.42 9.6L80.42 9.6Q81.11 9.6 81.74 9.42Q82.01 9.34 82.28 9.22Q82.93 8.94 83.46 8.5Q83.64 8.35 83.8 8.19Q83.94 8.05 84.07 7.9Q84.53 7.35 84.83 6.66Q84.96 6.37 85.05 6.06Q85.21 5.45 85.21 4.8Q85.21 4.15 85.05 3.54Q84.96 3.23 84.83 2.94Q84.53 2.25 84.07 1.7Q83.94 1.55 83.8 1.41Q83.64 1.24 83.46 1.1Q82.93 0.66 82.28 0.38Q82.01 0.26 81.74 0.18Q81.11 0 80.42 0L70.82 0L70.82 2.4L80.42 2.4Q80.76 2.4 81.07 2.49Q81.21 2.53 81.35 2.58Q81.68 2.73 81.95 2.95Q82.03 3.02 82.11 3.1Q82.17 3.16 82.22 3.22Q82.47 3.5 82.63 3.87Q82.7 4.02 82.74 4.19Q82.82 4.48 82.82 4.8Q82.82 5.12 82.74 5.41Q82.7 5.58 82.63 5.73Q82.47 6.09 82.22 6.38Q82.17 6.44 82.11 6.5Q82.03 6.58 81.95 6.65Q81.68 6.87 81.35 7.01Q81.21 7.07 81.07 7.11Q80.76 7.2 80.42 7.2L74.42 7.2Q73.66 7.2 72.97 7.42Q72.76 7.49 72.55 7.58Q71.9 7.87 71.37 8.31Q71.19 8.45 71.03 8.61Q70.87 8.78 70.72 8.95Q70.28 9.48 70 10.14Q69.88 10.4 69.8 10.68Q69.62 11.31 69.62 12L69.62 16.8ZM89.83 0L87.43 0L87.43 6Q87.43 6.76 87.65 7.45Q87.72 7.66 87.81 7.86Q88.1 8.52 88.53 9.05Q88.68 9.23 88.84 9.39Q89 9.55 89.18 9.7Q89.71 10.13 90.36 10.42Q90.57 10.51 90.78 10.58Q91.47 10.8 92.23 10.8L101.83 10.8L101.83 16.8L104.23 16.8L104.23 0L101.83 0L101.83 8.4L92.23 8.4Q91.9 8.4 91.58 8.31Q91.44 8.27 91.3 8.21Q90.99 8.08 90.74 7.88Q90.63 7.79 90.53 7.69Q90.44 7.6 90.35 7.49Q90.15 7.23 90.02 6.93Q89.96 6.79 89.92 6.64Q89.83 6.33 89.83 6L89.83 0Z"
            fill="#FAFF00" fill-opacity="1.000000" fill-rule="evenodd" />
        <path id="GYM24 - logo__Logo"
            d="M7.73 16.8L18.55 16.8L18.55 7.2L5.97 7.2L5.97 9.6L16.14 9.6L16.14 14.4L7.73 14.4Q6.49 14.4 5.5 13.93Q4.85 13.62 4.33 13.16Q4.06 12.92 3.82 12.65Q3.14 11.83 2.77 10.74Q2.4 9.64 2.4 8.4Q2.4 7.16 2.77 6.07Q3.14 4.98 3.82 4.16Q4.04 3.9 4.3 3.67Q4.83 3.19 5.5 2.87Q6.49 2.4 7.73 2.4L18.55 2.4L18.55 0L7.73 0Q5.98 0 4.55 0.66Q3.57 1.11 2.79 1.79Q2.43 2.1 2.11 2.46Q2.03 2.55 1.96 2.64Q1.06 3.72 0.55 5.13Q0 6.66 0 8.4Q0 10.14 0.55 11.68Q1.07 13.15 2.02 14.25Q2.07 14.3 2.11 14.35Q2.42 14.7 2.77 15.01Q3.56 15.69 4.55 16.14Q5.98 16.8 7.73 16.8ZM40.7 13.08Q40.85 12.56 40.85 12L40.85 0L38.44 0L38.44 8.4L27.43 8.4Q26.83 8.4 26.29 8.22Q26.15 8.17 26.02 8.12Q25.52 7.9 25.12 7.57Q25 7.47 24.88 7.35Q24.76 7.23 24.66 7.1Q24.33 6.7 24.11 6.21Q24.06 6.07 24.01 5.94Q23.83 5.4 23.83 4.8L23.83 0L21.43 0L21.43 4.8Q21.43 5.74 21.7 6.59Q21.78 6.87 21.9 7.14Q22.24 7.94 22.77 8.6Q22.97 8.83 23.18 9.05Q23.4 9.26 23.63 9.45Q24.28 9.99 25.09 10.33Q25.36 10.45 25.64 10.53Q26.49 10.8 27.43 10.8L38.44 10.8L38.44 12Q38.44 12.14 38.42 12.29Q38.36 12.62 38.16 12.93Q37.87 13.37 37.38 13.69Q36.9 14.02 36.24 14.21Q35.58 14.4 34.85 14.4L21.43 14.4L21.43 16.8L34.85 16.8Q36.09 16.8 37.18 16.42Q38.27 16.05 39.08 15.4Q39.73 14.88 40.17 14.22Q40.28 14.05 40.37 13.88Q40.58 13.49 40.7 13.08ZM54.42 16.8L56.82 16.8L56.82 8.4Q56.82 7.45 57.09 6.59Q57.18 6.33 57.29 6.07Q57.64 5.27 58.16 4.63Q58.36 4.38 58.58 4.16Q58.81 3.94 59.05 3.74Q59.7 3.22 60.49 2.87Q60.75 2.76 61.02 2.67Q61.87 2.4 62.82 2.4L64.12 2.4L64.12 16.8L66.52 16.8L66.52 0L62.82 0Q61.67 0 60.61 0.29Q59.62 0.57 58.74 1.07Q58.68 1.1 58.62 1.13Q58.13 1.42 57.68 1.77Q57.29 2.07 56.94 2.42Q56.54 2.82 56.19 3.26Q55.88 3.65 55.62 4.08Q55.3 3.56 54.92 3.1Q54.63 2.74 54.3 2.42Q53.95 2.07 53.56 1.77Q53.11 1.42 52.61 1.13Q52.55 1.1 52.5 1.07Q51.62 0.57 50.63 0.29Q49.57 0 48.42 0L44.73 0L44.73 16.8L47.13 16.8L47.13 2.4L48.42 2.4Q49.33 2.4 50.17 2.66Q50.47 2.75 50.75 2.87Q51.58 3.23 52.25 3.78Q52.47 3.96 52.66 4.16Q52.9 4.4 53.11 4.66Q53.62 5.29 53.95 6.07Q54.05 6.31 54.13 6.55Q54.42 7.43 54.42 8.4L54.42 16.8Z"
            fill="#FFFFFF" fill-opacity="1.000000" fill-rule="evenodd" />
    </symbol>
    <symbol id="mail" width="16.666748" height="13.333496" viewBox="0 0 16.6667 13.3335" fill="none"
        xmlns="http://www.w3.org/2000/svg">
        <defs />
        <path id="Vector__mail"
            d="M16.66 1.66C16.66 0.75 15.91 0 15 0L1.66 0C0.75 0 0 0.75 0 1.66L0 11.66C0 12.58 0.75 13.33 1.66 13.33L15 13.33C15.91 13.33 16.66 12.58 16.66 11.66L16.66 1.66ZM15 1.66L8.33 5.83L1.66 1.66L15 1.66ZM15 11.66L1.66 11.66L1.66 3.33L8.33 7.5L15 3.33L15 11.66Z"
            fill="#FFFFFF" fill-opacity="1.000000" fill-rule="nonzero" />
    </symbol>
    <symbol id="phone" width="12.966309" height="16.570312" viewBox="0 0 12.9663 16.5703" fill="none"
        xmlns="http://www.w3.org/2000/svg">
        <defs />
        <path id="Vector__phone"
            d="M1.28 4.8C1.04 3.23 2.15 1.82 3.84 1.3C4.14 1.21 4.47 1.23 4.75 1.37C5.03 1.51 5.25 1.75 5.36 2.05L5.9 3.5C5.99 3.73 6.01 3.98 5.95 4.23C5.89 4.47 5.76 4.69 5.58 4.86L3.96 6.34C3.88 6.41 3.82 6.5 3.79 6.61C3.76 6.71 3.75 6.82 3.77 6.93L3.79 6.99L3.83 7.15C4.03 7.94 4.33 8.7 4.74 9.41C5.18 10.16 5.72 10.85 6.36 11.44L6.41 11.49C6.49 11.56 6.59 11.61 6.69 11.63C6.8 11.65 6.91 11.65 7.01 11.62L9.1 10.96C9.34 10.88 9.59 10.88 9.83 10.95C10.07 11.02 10.28 11.16 10.44 11.36L11.43 12.56C11.84 13.06 11.79 13.79 11.32 14.23C10.02 15.44 8.24 15.69 7 14.69C5.48 13.47 4.2 11.97 3.22 10.28C2.23 8.59 1.58 6.73 1.28 4.8ZM5.08 7.01L6.42 5.78C6.79 5.44 7.05 5 7.16 4.52C7.28 4.03 7.25 3.52 7.07 3.06L6.53 1.61C6.31 1.02 5.87 0.53 5.3 0.25C4.74 -0.03 4.08 -0.08 3.48 0.1C1.37 0.75 -0.31 2.63 0.04 4.99C0.29 6.64 0.87 8.73 2.14 10.91C3.2 12.73 4.58 14.35 6.22 15.67C8.08 17.16 10.56 16.65 12.17 15.15C12.63 14.72 12.91 14.13 12.96 13.5C13 12.87 12.8 12.25 12.4 11.77L11.41 10.56C11.09 10.18 10.67 9.9 10.19 9.76C9.71 9.61 9.2 9.62 8.73 9.77L6.99 10.31C6.54 9.85 6.15 9.34 5.82 8.79C5.5 8.23 5.26 7.63 5.08 7.01L5.08 7.01Z"
            fill="#FFFFFF" fill-opacity="1.000000" fill-rule="nonzero" />
    </symbol>
    <symbol id="success" width="16.666748" height="16.666626" viewBox="0 0 16.6667 16.6666" fill="none"
        xmlns="http://www.w3.org/2000/svg">
        <defs />
        <path id="Vector__success"
            d="M7.16 9.83L5.35 8.02C5.2 7.86 5.01 7.79 4.78 7.8C4.55 7.8 4.36 7.88 4.2 8.04C4.05 8.19 3.97 8.38 3.97 8.62C3.97 8.86 4.05 9.05 4.2 9.2L6.58 11.58C6.73 11.73 6.93 11.81 7.16 11.81C7.4 11.81 7.59 11.73 7.75 11.58L12.47 6.85C12.63 6.7 12.7 6.51 12.69 6.28C12.69 6.05 12.61 5.86 12.45 5.7C12.3 5.55 12.11 5.47 11.87 5.47C11.63 5.47 11.44 5.55 11.29 5.7L7.16 9.83ZM8.33 16.66C7.18 16.66 6.09 16.44 5.08 16.01C4.06 15.57 3.18 14.97 2.43 14.22C1.68 13.47 1.09 12.59 0.65 11.58C0.21 10.56 0 9.48 0 8.33C0 7.18 0.21 6.09 0.65 5.08C1.09 4.06 1.68 3.18 2.43 2.43C3.18 1.68 4.06 1.09 5.08 0.65C6.09 0.21 7.18 0 8.33 0C9.48 0 10.56 0.21 11.58 0.65C12.59 1.09 13.47 1.68 14.22 2.43C14.97 3.18 15.57 4.06 16.01 5.08C16.44 6.09 16.66 7.18 16.66 8.33C16.66 9.48 16.44 10.56 16.01 11.58C15.57 12.59 14.97 13.47 14.22 14.22C13.47 14.97 12.59 15.57 11.58 16.01C10.56 16.44 9.48 16.66 8.33 16.66ZM8.33 15C10.18 15 11.75 14.35 13.05 13.05C14.35 11.75 15 10.18 15 8.33C15 6.48 14.35 4.91 13.05 3.61C11.75 2.31 10.18 1.66 8.33 1.66C6.48 1.66 4.91 2.31 3.61 3.61C2.31 4.91 1.66 6.48 1.66 8.33C1.66 10.18 2.31 11.75 3.61 13.05C4.91 14.35 6.48 15 8.33 15Z"
            fill="#FFFFFF" fill-opacity="1.000000" fill-rule="nonzero" />
    </symbol>
    <symbol id="timer" viewBox="0 0 47.1245 47.1245" fill="none" xmlns="http://www.w3.org/2000/svg">
        <defs />
        <path id="Vector__timer"
            d="M47.12 23.56C47.12 29.81 44.64 35.8 40.22 40.22C35.8 44.64 29.81 47.12 23.56 47.12C17.31 47.12 11.31 44.64 6.9 40.22C2.48 35.8 0 29.81 0 23.56C0 17.31 2.48 11.32 6.9 6.9C11.31 2.48 17.31 0 23.56 0C23.96 0 24.29 0.32 24.29 0.73C24.29 1.14 23.96 1.47 23.56 1.47C18.56 1.47 13.7 3.16 9.79 6.28C5.88 9.39 3.14 13.74 2.02 18.62C0.9 23.49 1.47 28.6 3.63 33.11C5.79 37.62 9.41 41.26 13.91 43.44C18.41 45.62 23.52 46.22 28.4 45.12C33.28 44.02 37.64 41.3 40.77 37.4C43.91 33.5 45.62 28.66 45.65 23.66C45.67 18.66 43.99 13.8 40.89 9.87L40.7 11.81C40.66 12.19 40.35 12.48 39.97 12.48C39.94 12.48 39.92 12.48 39.89 12.47C39.49 12.43 39.19 12.07 39.23 11.67L39.6 7.98L39.6 7.98C39.64 7.58 40 7.29 40.41 7.33L44.09 7.69C44.49 7.73 44.79 8.09 44.75 8.5C44.71 8.9 44.34 9.2 43.94 9.16L42.06 8.97L42.06 8.97C45.34 13.12 47.12 18.26 47.12 23.56L47.12 23.56ZM23.56 5.9C28.24 5.9 32.73 7.76 36.04 11.07C39.36 14.38 41.22 18.87 41.22 23.56C41.22 28.24 39.36 32.73 36.04 36.04C32.73 39.36 28.24 41.22 23.56 41.22C18.87 41.22 14.38 39.36 11.07 36.04C7.76 32.73 5.9 28.24 5.9 23.56C5.9 18.87 7.76 14.39 11.08 11.07C14.39 7.76 18.87 5.9 23.56 5.9L23.56 5.9ZM32.6 13.48L34.46 11.61C31.67 9.05 28.07 7.56 24.29 7.39L24.29 10.04C24.29 10.44 23.96 10.77 23.55 10.77C23.15 10.77 22.82 10.44 22.82 10.04L22.82 7.39C19.04 7.56 15.44 9.05 12.65 11.61L14.52 13.48C14.8 13.76 14.8 14.23 14.52 14.52C14.23 14.81 13.76 14.81 13.47 14.52L11.6 12.65C9.05 15.44 7.55 19.04 7.38 22.82L10.03 22.82C10.44 22.82 10.77 23.15 10.77 23.56C10.77 23.96 10.44 24.29 10.03 24.29L7.38 24.29C7.55 28.07 9.05 31.68 11.6 34.47L13.47 32.6C13.61 32.46 13.8 32.38 14 32.38C14.2 32.37 14.38 32.45 14.52 32.59C14.66 32.73 14.74 32.92 14.74 33.12C14.74 33.32 14.66 33.5 14.51 33.64L12.65 35.51C15.44 38.06 19.04 39.56 22.82 39.73L22.82 37.08C22.82 36.67 23.15 36.34 23.55 36.34C23.96 36.34 24.29 36.67 24.29 37.08L24.29 39.73C28.07 39.56 31.67 38.06 34.46 35.51L32.6 33.64L32.6 33.64C32.31 33.35 32.31 32.89 32.6 32.6C32.89 32.31 33.35 32.31 33.64 32.6L35.5 34.47L35.5 34.47C38.06 31.68 39.56 28.07 39.73 24.29L37.08 24.29C36.67 24.29 36.34 23.96 36.34 23.56C36.34 23.15 36.67 22.82 37.08 22.82L39.73 22.82C39.56 19.04 38.06 15.44 35.5 12.65L33.64 14.52L33.64 14.52C33.35 14.8 32.89 14.79 32.61 14.51C32.32 14.23 32.32 13.77 32.6 13.48L32.6 13.48ZM28.85 27.81L28.85 27.81C29.14 28.1 29.14 28.56 28.85 28.85C28.56 29.14 28.1 29.14 27.81 28.85L24.49 25.53C23.95 25.79 23.33 25.81 22.77 25.6C22.21 25.38 21.77 24.95 21.54 24.39C21.31 23.84 21.32 23.22 21.56 22.67C21.8 22.13 22.26 21.7 22.82 21.5L22.82 14.31C22.82 13.9 23.15 13.57 23.56 13.57C23.96 13.57 24.29 13.9 24.29 14.31L24.29 21.5C24.87 21.71 25.34 22.15 25.58 22.72C25.81 23.29 25.8 23.93 25.53 24.49L28.85 27.81ZM23.56 24.27C23.85 24.27 24.1 24.1 24.21 23.83C24.32 23.56 24.26 23.26 24.06 23.05C23.86 22.85 23.55 22.79 23.28 22.9C23.02 23.01 22.85 23.27 22.85 23.56C22.85 23.95 23.16 24.27 23.56 24.27Z"
            fill="#FAFF00" fill-opacity="1.000000" fill-rule="nonzero" />
    </symbol>
    <symbol id="Twitter" width="40.000000" height="40.000000" viewBox="0 0 40 40" fill="none"
        xmlns="http://www.w3.org/2000/svg">
        <defs>
            <clipPath id="clip9_1464__Twitter">
                <rect id="icon:twitter__Twitter" width="20.000000" height="20.000000"
                    transform="translate(10.000000 10.000000)" fill="white" fill-opacity="0" />
            </clipPath>
        </defs>
        <rect id="icon:twitter__Twitter" width="20.000000" height="20.000000" transform="translate(10.000000 10.000000)"
            fill="#FFFFFF" fill-opacity="0" />
        <g clip-path="url(#clip9_1464__Twitter)">
            <path id="Vector__Twitter"
                d="M29.32 15.38C29.28 15.27 29.2 15.17 29.09 15.1C28.99 15.03 28.87 14.99 28.75 14.99L26.37 14.99C26.04 14.43 25.56 13.96 24.99 13.63C24.43 13.3 23.78 13.13 23.13 13.12C22.64 13.11 22.15 13.2 21.7 13.39C21.25 13.57 20.84 13.84 20.49 14.19C20.13 14.54 19.85 14.96 19.66 15.42C19.47 15.88 19.37 16.37 19.37 16.87L19.37 17.35C16.22 16.52 13.65 13.96 13.62 13.93C13.54 13.85 13.43 13.79 13.32 13.76C13.2 13.73 13.08 13.74 12.97 13.78C12.86 13.82 12.76 13.89 12.69 13.99C12.61 14.08 12.57 14.2 12.56 14.31C12.22 18.05 13.31 20.55 14.28 21.98C14.75 22.7 15.33 23.33 15.99 23.88C14.8 25.24 12.92 25.96 12.9 25.97C12.81 26.01 12.74 26.06 12.67 26.13C12.6 26.19 12.56 26.28 12.53 26.37C12.5 26.46 12.49 26.55 12.5 26.64C12.52 26.74 12.55 26.83 12.6 26.9C12.66 26.99 12.89 27.3 13.47 27.59C14.18 27.94 15.11 28.12 16.24 28.12C21.77 28.12 26.38 23.87 26.85 18.4L29.19 16.06C29.27 15.97 29.33 15.86 29.36 15.74C29.38 15.62 29.37 15.5 29.32 15.38ZM25.81 17.68C25.7 17.79 25.64 17.93 25.63 18.08C25.31 23.01 21.19 26.87 16.24 26.87C15.42 26.87 14.84 26.76 14.43 26.63C15.33 26.14 16.58 25.3 17.39 24.09C17.44 24.02 17.47 23.94 17.49 23.86C17.5 23.77 17.5 23.69 17.48 23.6C17.46 23.52 17.42 23.44 17.37 23.37C17.32 23.3 17.26 23.25 17.18 23.2C17.15 23.18 13.75 21.15 13.74 15.7C14.99 16.72 17.28 18.3 19.89 18.73C19.98 18.75 20.07 18.75 20.16 18.72C20.25 18.7 20.33 18.65 20.4 18.6C20.47 18.54 20.52 18.46 20.56 18.38C20.6 18.3 20.62 18.21 20.62 18.12L20.62 16.87C20.62 16.54 20.69 16.21 20.81 15.9C20.94 15.59 21.13 15.31 21.37 15.08C21.6 14.85 21.87 14.67 22.17 14.55C22.47 14.43 22.79 14.37 23.11 14.37C24.1 14.38 25.03 14.99 25.41 15.87C25.46 15.98 25.54 16.08 25.64 16.14C25.74 16.21 25.86 16.24 25.98 16.24L27.23 16.24L25.81 17.68Z"
                fill="#FFFFFF" fill-opacity="1.000000" fill-rule="nonzero" />
        </g>
        <circle id="white__Twitter" cx="20.000000" cy="20.000000" r="19.500000" stroke="#FFFFFF"
            stroke-opacity="1.000000" stroke-width="1.000000" />
        <circle id="white__Twitter" cx="20.000000" cy="20.000000" r="19.500000" stroke="#FFFFFF"
            stroke-opacity="1.000000" stroke-width="1.000000" />
        <circle id="white__Twitter" cx="20.000000" cy="20.000000" r="19.500000" stroke="#FFFFFF"
            stroke-opacity="1.000000" stroke-width="1.000000" />
    </symbol>
    <symbol id="youtube" width="40.000000" height="40.000000" viewBox="0 0 40 40" fill="none"
        xmlns="http://www.w3.org/2000/svg">
        <defs>
            <clipPath id="clip9_1469__youtube">
                <rect id="icon:youtube__youtube" width="20.000000" height="20.000000"
                    transform="translate(10.000000 10.000000)" fill="white" fill-opacity="0" />
            </clipPath>
        </defs>
        <rect id="icon:youtube__youtube" width="20.000000" height="20.000000" transform="translate(10.000000 10.000000)"
            fill="#FFFFFF" fill-opacity="0" />
        <g clip-path="url(#clip9_1469__youtube)">
            <path id="Vector__youtube"
                d="M22.84 19.47L19.09 16.97C19 16.91 18.89 16.88 18.78 16.87C18.66 16.86 18.55 16.89 18.45 16.94C18.35 17 18.27 17.08 18.21 17.17C18.15 17.27 18.12 17.38 18.12 17.5L18.12 22.5C18.12 22.61 18.15 22.72 18.21 22.82C18.27 22.91 18.35 22.99 18.45 23.05C18.55 23.1 18.66 23.13 18.78 23.12C18.89 23.11 19 23.08 19.09 23.02L22.84 20.52C22.93 20.46 23 20.38 23.05 20.29C23.1 20.2 23.12 20.1 23.12 20C23.12 19.89 23.1 19.79 23.05 19.7C23 19.61 22.93 19.53 22.84 19.47ZM19.37 21.33L19.37 18.67L21.37 20L19.37 21.33ZM28.3 15.43C28.23 15.14 28.09 14.87 27.89 14.65C27.69 14.43 27.45 14.25 27.17 14.14C24.49 13.11 20.23 13.12 20 13.12C19.76 13.12 15.5 13.11 12.82 14.14C12.54 14.25 12.3 14.43 12.1 14.65C11.9 14.87 11.76 15.14 11.69 15.43C11.49 16.21 11.25 17.63 11.25 20C11.25 22.36 11.49 23.78 11.69 24.56C11.76 24.85 11.9 25.12 12.1 25.34C12.3 25.56 12.54 25.74 12.82 25.85C15.39 26.84 19.4 26.87 19.94 26.87L20.05 26.87C20.59 26.87 24.61 26.84 27.17 25.85C27.45 25.74 27.69 25.56 27.89 25.34C28.09 25.12 28.23 24.85 28.3 24.56C28.5 23.78 28.75 22.36 28.75 20C28.75 17.63 28.5 16.21 28.3 15.43ZM27.09 24.25C27.07 24.35 27.02 24.44 26.96 24.51C26.89 24.59 26.81 24.65 26.72 24.68C24.25 25.64 20.04 25.62 20 25.62L20 25.62C19.95 25.62 15.75 25.64 13.28 24.68C13.18 24.65 13.1 24.59 13.04 24.51C12.97 24.44 12.93 24.35 12.9 24.25C12.71 23.54 12.5 22.23 12.5 20C12.5 17.76 12.71 16.45 12.9 15.74C12.92 15.64 12.97 15.55 13.03 15.48C13.1 15.4 13.18 15.34 13.27 15.31C15.66 14.39 19.65 14.37 19.98 14.37L20 14.37C20.04 14.37 24.25 14.36 26.72 15.31C26.81 15.34 26.89 15.4 26.96 15.48C27.02 15.55 27.07 15.64 27.09 15.74C27.28 16.45 27.5 17.76 27.5 20C27.5 22.23 27.28 23.54 27.09 24.25L27.09 24.25Z"
                fill="#FFFFFF" fill-opacity="1.000000" fill-rule="nonzero" />
        </g>
        <circle id="white__youtube" cx="20.000000" cy="20.000000" r="19.500000" stroke="#FFFFFF"
            stroke-opacity="1.000000" stroke-width="1.000000" />
        <circle id="white__youtube" cx="20.000000" cy="20.000000" r="19.500000" stroke="#FFFFFF"
            stroke-opacity="1.000000" stroke-width="1.000000" />
        <circle id="white__youtube" cx="20.000000" cy="20.000000" r="19.500000" stroke="#FFFFFF"
            stroke-opacity="1.000000" stroke-width="1.000000" />
    </symbol>
</svg>