<svg width="16.666748" height="16.666626" viewBox="0 0 16.6667 16.6666" fill="none" xmlns="http://www.w3.org/2000/svg" xmlns:xlink="http://www.w3.org/1999/xlink">
	<desc>
			Created with Pixso.
	</desc>
	<defs/>
	<path id="Vector" d="M7.16 9.83L5.35 8.02C5.2 7.86 5.01 7.79 4.78 7.8C4.55 7.8 4.36 7.88 4.2 8.04C4.05 8.19 3.97 8.38 3.97 8.62C3.97 8.86 4.05 9.05 4.2 9.2L6.58 11.58C6.73 11.73 6.93 11.81 7.16 11.81C7.4 11.81 7.59 11.73 7.75 11.58L12.47 6.85C12.63 6.7 12.7 6.51 12.69 6.28C12.69 6.05 12.61 5.86 12.45 5.7C12.3 5.55 12.11 5.47 11.87 5.47C11.63 5.47 11.44 5.55 11.29 5.7L7.16 9.83ZM8.33 16.66C7.18 16.66 6.09 16.44 5.08 16.01C4.06 15.57 3.18 14.97 2.43 14.22C1.68 13.47 1.09 12.59 0.65 11.58C0.21 10.56 0 9.48 0 8.33C0 7.18 0.21 6.09 0.65 5.08C1.09 4.06 1.68 3.18 2.43 2.43C3.18 1.68 4.06 1.09 5.08 0.65C6.09 0.21 7.18 0 8.33 0C9.48 0 10.56 0.21 11.58 0.65C12.59 1.09 13.47 1.68 14.22 2.43C14.97 3.18 15.57 4.06 16.01 5.08C16.44 6.09 16.66 7.18 16.66 8.33C16.66 9.48 16.44 10.56 16.01 11.58C15.57 12.59 14.97 13.47 14.22 14.22C13.47 14.97 12.59 15.57 11.58 16.01C10.56 16.44 9.48 16.66 8.33 16.66ZM8.33 15C10.18 15 11.75 14.35 13.05 13.05C14.35 11.75 15 10.18 15 8.33C15 6.48 14.35 4.91 13.05 3.61C11.75 2.31 10.18 1.66 8.33 1.66C6.48 1.66 4.91 2.31 3.61 3.61C2.31 4.91 1.66 6.48 1.66 8.33C1.66 10.18 2.31 11.75 3.61 13.05C4.91 14.35 6.48 15 8.33 15Z" fill="#FFFFFF" fill-opacity="1.000000" fill-rule="nonzero"/>
</svg>
