<svg width="47.124512" height="47.124512" viewBox="0 0 47.1245 47.1245" fill="none" xmlns="http://www.w3.org/2000/svg" xmlns:xlink="http://www.w3.org/1999/xlink">
	<desc>
			Created with Pixso.
	</desc>
	<defs/>
	<path id="Vector" d="M47.12 23.56C47.12 29.81 44.64 35.8 40.22 40.22C35.8 44.64 29.81 47.12 23.56 47.12C17.31 47.12 11.31 44.64 6.9 40.22C2.48 35.8 0 29.81 0 23.56C0 17.31 2.48 11.32 6.9 6.9C11.31 2.48 17.31 0 23.56 0C23.96 0 24.29 0.32 24.29 0.73C24.29 1.14 23.96 1.47 23.56 1.47C18.56 1.47 13.7 3.16 9.79 6.28C5.88 9.39 3.14 13.74 2.02 18.62C0.9 23.49 1.47 28.6 3.63 33.11C5.79 37.62 9.41 41.26 13.91 43.44C18.41 45.62 23.52 46.22 28.4 45.12C33.28 44.02 37.64 41.3 40.77 37.4C43.91 33.5 45.62 28.66 45.65 23.66C45.67 18.66 43.99 13.8 40.89 9.87L40.7 11.81C40.66 12.19 40.35 12.48 39.97 12.48C39.94 12.48 39.92 12.48 39.89 12.47C39.49 12.43 39.19 12.07 39.23 11.67L39.6 7.98L39.6 7.98C39.64 7.58 40 7.29 40.41 7.33L44.09 7.69C44.49 7.73 44.79 8.09 44.75 8.5C44.71 8.9 44.34 9.2 43.94 9.16L42.06 8.97L42.06 8.97C45.34 13.12 47.12 18.26 47.12 23.56L47.12 23.56ZM23.56 5.9C28.24 5.9 32.73 7.76 36.04 11.07C39.36 14.38 41.22 18.87 41.22 23.56C41.22 28.24 39.36 32.73 36.04 36.04C32.73 39.36 28.24 41.22 23.56 41.22C18.87 41.22 14.38 39.36 11.07 36.04C7.76 32.73 5.9 28.24 5.9 23.56C5.9 18.87 7.76 14.39 11.08 11.07C14.39 7.76 18.87 5.9 23.56 5.9L23.56 5.9ZM32.6 13.48L34.46 11.61C31.67 9.05 28.07 7.56 24.29 7.39L24.29 10.04C24.29 10.44 23.96 10.77 23.55 10.77C23.15 10.77 22.82 10.44 22.82 10.04L22.82 7.39C19.04 7.56 15.44 9.05 12.65 11.61L14.52 13.48C14.8 13.76 14.8 14.23 14.52 14.52C14.23 14.81 13.76 14.81 13.47 14.52L11.6 12.65C9.05 15.44 7.55 19.04 7.38 22.82L10.03 22.82C10.44 22.82 10.77 23.15 10.77 23.56C10.77 23.96 10.44 24.29 10.03 24.29L7.38 24.29C7.55 28.07 9.05 31.68 11.6 34.47L13.47 32.6C13.61 32.46 13.8 32.38 14 32.38C14.2 32.37 14.38 32.45 14.52 32.59C14.66 32.73 14.74 32.92 14.74 33.12C14.74 33.32 14.66 33.5 14.51 33.64L12.65 35.51C15.44 38.06 19.04 39.56 22.82 39.73L22.82 37.08C22.82 36.67 23.15 36.34 23.55 36.34C23.96 36.34 24.29 36.67 24.29 37.08L24.29 39.73C28.07 39.56 31.67 38.06 34.46 35.51L32.6 33.64L32.6 33.64C32.31 33.35 32.31 32.89 32.6 32.6C32.89 32.31 33.35 32.31 33.64 32.6L35.5 34.47L35.5 34.47C38.06 31.68 39.56 28.07 39.73 24.29L37.08 24.29C36.67 24.29 36.34 23.96 36.34 23.56C36.34 23.15 36.67 22.82 37.08 22.82L39.73 22.82C39.56 19.04 38.06 15.44 35.5 12.65L33.64 14.52L33.64 14.52C33.35 14.8 32.89 14.79 32.61 14.51C32.32 14.23 32.32 13.77 32.6 13.48L32.6 13.48ZM28.85 27.81L28.85 27.81C29.14 28.1 29.14 28.56 28.85 28.85C28.56 29.14 28.1 29.14 27.81 28.85L24.49 25.53C23.95 25.79 23.33 25.81 22.77 25.6C22.21 25.38 21.77 24.95 21.54 24.39C21.31 23.84 21.32 23.22 21.56 22.67C21.8 22.13 22.26 21.7 22.82 21.5L22.82 14.31C22.82 13.9 23.15 13.57 23.56 13.57C23.96 13.57 24.29 13.9 24.29 14.31L24.29 21.5C24.87 21.71 25.34 22.15 25.58 22.72C25.81 23.29 25.8 23.93 25.53 24.49L28.85 27.81ZM23.56 24.27C23.85 24.27 24.1 24.1 24.21 23.83C24.32 23.56 24.26 23.26 24.06 23.05C23.86 22.85 23.55 22.79 23.28 22.9C23.02 23.01 22.85 23.27 22.85 23.56C22.85 23.95 23.16 24.27 23.56 24.27Z" fill="#FAFF00" fill-opacity="1.000000" fill-rule="nonzero"/>
</svg>
