<svg width="40.000000" height="40.000000" viewBox="0 0 40 40" fill="none" xmlns="http://www.w3.org/2000/svg" xmlns:xlink="http://www.w3.org/1999/xlink">
	<desc>
			Created with Pixso.
	</desc>
	<defs>
		<clipPath id="clip9_1464">
			<rect id="icon:twitter" width="20.000000" height="20.000000" transform="translate(10.000000 10.000000)" fill="white" fill-opacity="0"/>
		</clipPath>
	</defs>
	<rect id="icon:twitter" width="20.000000" height="20.000000" transform="translate(10.000000 10.000000)" fill="#FFFFFF" fill-opacity="0"/>
	<g clip-path="url(#clip9_1464)">
		<path id="Vector" d="M29.32 15.38C29.28 15.27 29.2 15.17 29.09 15.1C28.99 15.03 28.87 14.99 28.75 14.99L26.37 14.99C26.04 14.43 25.56 13.96 24.99 13.63C24.43 13.3 23.78 13.13 23.13 13.12C22.64 13.11 22.15 13.2 21.7 13.39C21.25 13.57 20.84 13.84 20.49 14.19C20.13 14.54 19.85 14.96 19.66 15.42C19.47 15.88 19.37 16.37 19.37 16.87L19.37 17.35C16.22 16.52 13.65 13.96 13.62 13.93C13.54 13.85 13.43 13.79 13.32 13.76C13.2 13.73 13.08 13.74 12.97 13.78C12.86 13.82 12.76 13.89 12.69 13.99C12.61 14.08 12.57 14.2 12.56 14.31C12.22 18.05 13.31 20.55 14.28 21.98C14.75 22.7 15.33 23.33 15.99 23.88C14.8 25.24 12.92 25.96 12.9 25.97C12.81 26.01 12.74 26.06 12.67 26.13C12.6 26.19 12.56 26.28 12.53 26.37C12.5 26.46 12.49 26.55 12.5 26.64C12.52 26.74 12.55 26.83 12.6 26.9C12.66 26.99 12.89 27.3 13.47 27.59C14.18 27.94 15.11 28.12 16.24 28.12C21.77 28.12 26.38 23.87 26.85 18.4L29.19 16.06C29.27 15.97 29.33 15.86 29.36 15.74C29.38 15.62 29.37 15.5 29.32 15.38ZM25.81 17.68C25.7 17.79 25.64 17.93 25.63 18.08C25.31 23.01 21.19 26.87 16.24 26.87C15.42 26.87 14.84 26.76 14.43 26.63C15.33 26.14 16.58 25.3 17.39 24.09C17.44 24.02 17.47 23.94 17.49 23.86C17.5 23.77 17.5 23.69 17.48 23.6C17.46 23.52 17.42 23.44 17.37 23.37C17.32 23.3 17.26 23.25 17.18 23.2C17.15 23.18 13.75 21.15 13.74 15.7C14.99 16.72 17.28 18.3 19.89 18.73C19.98 18.75 20.07 18.75 20.16 18.72C20.25 18.7 20.33 18.65 20.4 18.6C20.47 18.54 20.52 18.46 20.56 18.38C20.6 18.3 20.62 18.21 20.62 18.12L20.62 16.87C20.62 16.54 20.69 16.21 20.81 15.9C20.94 15.59 21.13 15.31 21.37 15.08C21.6 14.85 21.87 14.67 22.17 14.55C22.47 14.43 22.79 14.37 23.11 14.37C24.1 14.38 25.03 14.99 25.41 15.87C25.46 15.98 25.54 16.08 25.64 16.14C25.74 16.21 25.86 16.24 25.98 16.24L27.23 16.24L25.81 17.68Z" fill="#FFFFFF" fill-opacity="1.000000" fill-rule="nonzero"/>
	</g>
	<circle id="white" cx="20.000000" cy="20.000000" r="19.500000" stroke="#FFFFFF" stroke-opacity="1.000000" stroke-width="1.000000"/>
	<circle id="white" cx="20.000000" cy="20.000000" r="19.500000" stroke="#FFFFFF" stroke-opacity="1.000000" stroke-width="1.000000"/>
	<circle id="white" cx="20.000000" cy="20.000000" r="19.500000" stroke="#FFFFFF" stroke-opacity="1.000000" stroke-width="1.000000"/>
</svg>
