<svg width="40.000000" height="40.000000" viewBox="0 0 40 40" fill="none" xmlns="http://www.w3.org/2000/svg" xmlns:xlink="http://www.w3.org/1999/xlink">
	<desc>
			Created with Pixso.
	</desc>
	<defs>
		<clipPath id="clip9_1469">
			<rect id="icon:youtube" width="20.000000" height="20.000000" transform="translate(10.000000 10.000000)" fill="white" fill-opacity="0"/>
		</clipPath>
	</defs>
	<rect id="icon:youtube" width="20.000000" height="20.000000" transform="translate(10.000000 10.000000)" fill="#FFFFFF" fill-opacity="0"/>
	<g clip-path="url(#clip9_1469)">
		<path id="Vector" d="M22.84 19.47L19.09 16.97C19 16.91 18.89 16.88 18.78 16.87C18.66 16.86 18.55 16.89 18.45 16.94C18.35 17 18.27 17.08 18.21 17.17C18.15 17.27 18.12 17.38 18.12 17.5L18.12 22.5C18.12 22.61 18.15 22.72 18.21 22.82C18.27 22.91 18.35 22.99 18.45 23.05C18.55 23.1 18.66 23.13 18.78 23.12C18.89 23.11 19 23.08 19.09 23.02L22.84 20.52C22.93 20.46 23 20.38 23.05 20.29C23.1 20.2 23.12 20.1 23.12 20C23.12 19.89 23.1 19.79 23.05 19.7C23 19.61 22.93 19.53 22.84 19.47ZM19.37 21.33L19.37 18.67L21.37 20L19.37 21.33ZM28.3 15.43C28.23 15.14 28.09 14.87 27.89 14.65C27.69 14.43 27.45 14.25 27.17 14.14C24.49 13.11 20.23 13.12 20 13.12C19.76 13.12 15.5 13.11 12.82 14.14C12.54 14.25 12.3 14.43 12.1 14.65C11.9 14.87 11.76 15.14 11.69 15.43C11.49 16.21 11.25 17.63 11.25 20C11.25 22.36 11.49 23.78 11.69 24.56C11.76 24.85 11.9 25.12 12.1 25.34C12.3 25.56 12.54 25.74 12.82 25.85C15.39 26.84 19.4 26.87 19.94 26.87L20.05 26.87C20.59 26.87 24.61 26.84 27.17 25.85C27.45 25.74 27.69 25.56 27.89 25.34C28.09 25.12 28.23 24.85 28.3 24.56C28.5 23.78 28.75 22.36 28.75 20C28.75 17.63 28.5 16.21 28.3 15.43ZM27.09 24.25C27.07 24.35 27.02 24.44 26.96 24.51C26.89 24.59 26.81 24.65 26.72 24.68C24.25 25.64 20.04 25.62 20 25.62L20 25.62C19.95 25.62 15.75 25.64 13.28 24.68C13.18 24.65 13.1 24.59 13.04 24.51C12.97 24.44 12.93 24.35 12.9 24.25C12.71 23.54 12.5 22.23 12.5 20C12.5 17.76 12.71 16.45 12.9 15.74C12.92 15.64 12.97 15.55 13.03 15.48C13.1 15.4 13.18 15.34 13.27 15.31C15.66 14.39 19.65 14.37 19.98 14.37L20 14.37C20.04 14.37 24.25 14.36 26.72 15.31C26.81 15.34 26.89 15.4 26.96 15.48C27.02 15.55 27.07 15.64 27.09 15.74C27.28 16.45 27.5 17.76 27.5 20C27.5 22.23 27.28 23.54 27.09 24.25L27.09 24.25Z" fill="#FFFFFF" fill-opacity="1.000000" fill-rule="nonzero"/>
	</g>
	<circle id="white" cx="20.000000" cy="20.000000" r="19.500000" stroke="#FFFFFF" stroke-opacity="1.000000" stroke-width="1.000000"/>
	<circle id="white" cx="20.000000" cy="20.000000" r="19.500000" stroke="#FFFFFF" stroke-opacity="1.000000" stroke-width="1.000000"/>
	<circle id="white" cx="20.000000" cy="20.000000" r="19.500000" stroke="#FFFFFF" stroke-opacity="1.000000" stroke-width="1.000000"/>
</svg>
